<svg xmlns="http://www.w3.org/2000/svg" viewBox="-5.0 -9.0 16.0 14.0" width="600" height="600">
  <rect x="-5.0" y="-9.0" width="16.0" height="14.0" fill="#1a1a2e"/>
  <g data-layer="surfaces" opacity="0.25">
    <path d="M0.000,0.000 L6.000,0.000 L6.000,-4.000 L0.000,-4.000Z" fill="#4488cc" stroke="none"/>
  </g>
  <g data-layer="surface-labels">
    <text x="3.000" y="-2.000" fill="#4488cc" font-size="3" font-family="sans-serif" text-anchor="middle" dominant-baseline="central" font-weight="bold" opacity="0.6">[0]</text>
  </g>
  <g data-layer="edges">
    <line x1="0.000" y1="0.000" x2="6.000" y2="0.000" stroke="#e8e8e8" stroke-width="0.4"/>
    <line x1="6.000" y1="0.000" x2="6.000" y2="-4.000" stroke="#e8e8e8" stroke-width="0.4"/>
    <line x1="6.000" y1="-4.000" x2="0.000" y2="-4.000" stroke="#e8e8e8" stroke-width="0.4"/>
    <line x1="0.000" y1="-4.000" x2="0.000" y2="0.000" stroke="#e8e8e8" stroke-width="0.4"/>
    <circle cx="0.000" cy="0.000" r="0.6" fill="#e8e8e8"/>
    <circle cx="6.000" cy="0.000" r="0.6" fill="#e8e8e8"/>
    <circle cx="6.000" cy="-4.000" r="0.6" fill="#e8e8e8"/>
    <circle cx="0.000" cy="-4.000" r="0.6" fill="#e8e8e8"/>
  </g>
  <g data-layer="construction">
  </g>
  <g data-layer="annotations">
    <text x="3.000" y="0.000" fill="#4ade80" font-size="1.8" font-family="sans-serif" text-anchor="middle" dominant-baseline="central" font-weight="bold">H</text>
    <text x="3.000" y="-4.000" fill="#4ade80" font-size="1.8" font-family="sans-serif" text-anchor="middle" dominant-baseline="central" font-weight="bold">H</text>
    <text x="6.000" y="-2.000" fill="#4ade80" font-size="1.8" font-family="sans-serif" text-anchor="middle" dominant-baseline="central" font-weight="bold">V</text>
    <text x="0.000" y="-2.000" fill="#4ade80" font-size="1.8" font-family="sans-serif" text-anchor="middle" dominant-baseline="central" font-weight="bold">V</text>
    <line x1="0.000" y1="-0.300" x2="0.000" y2="-3.500" stroke="#4ade80" stroke-width="0.15" opacity="0.6"/>
    <line x1="6.000" y1="-0.300" x2="6.000" y2="-3.500" stroke="#4ade80" stroke-width="0.15" opacity="0.6"/>
    <line x1="0.000" y1="-3.000" x2="6.000" y2="-3.000" stroke="#4ade80" stroke-width="0.2"/>
    <polygon points="0.000,-3.000 0.900,-3.315 0.900,-2.685" fill="#4ade80"/>
    <polygon points="6.000,-3.000 5.100,-3.315 5.100,-2.685" fill="#4ade80"/>
    <text x="3.000" y="-3.800" fill="#4ade80" font-size="1.8" font-family="sans-serif" text-anchor="middle" font-weight="bold">6</text>
    <line x1="0.300" y1="-4.000" x2="3.500" y2="-4.000" stroke="#4ade80" stroke-width="0.15" opacity="0.6"/>
    <line x1="0.300" y1="0.000" x2="3.500" y2="0.000" stroke="#4ade80" stroke-width="0.15" opacity="0.6"/>
    <line x1="3.000" y1="-4.000" x2="3.000" y2="0.000" stroke="#4ade80" stroke-width="0.2"/>
    <polygon points="3.000,-4.000 3.210,-3.400 2.790,-3.400" fill="#4ade80"/>
    <polygon points="3.000,0.000 3.210,-0.600 2.790,-0.600" fill="#4ade80"/>
    <text x="3.000" y="-2.800" fill="#4ade80" font-size="1.8" font-family="sans-serif" text-anchor="middle" font-weight="bold">4</text>
  </g>
  <g data-layer="status">
    <rect x="-4.0" y="-8.0" width="28.6" height="3" rx="0.5" fill="#4ade80" opacity="0.85"/>
    <text x="-3.2" y="-5.9" fill="#000000" font-size="1.8" font-family="sans-serif" font-weight="bold">FULLY DOF=0 err=0.0000</text>
  </g>
</svg>