<svg xmlns="http://www.w3.org/2000/svg" viewBox="-7.6809 -10.0601 41.5918 66.1145">
  <g transform="translate(0, 45.9943) scale(1, -1)">
    <line x1="0" y1="0" x2="11.1588" y2="11.1039" stroke="black" stroke-width="0.5"/>
    <line x1="11.1588" y1="11.1039" x2="-5.3932" y2="-6.0178" stroke="black" stroke-width="0.5"/>
    <line x1="-5.3932" y1="-6.0178" x2="0" y2="0" stroke="black" stroke-width="0.5"/>
    <line x1="9.466" y1="8.802" x2="-5.6809" y2="-2.9478" stroke="black" stroke-width="0.5"/>
    <line x1="-5.6809" y1="-2.9478" x2="8.4013" y2="-8.0019" stroke="black" stroke-width="0.5"/>
    <line x1="8.4013" y1="-8.0019" x2="9.466" y2="8.802" stroke="black" stroke-width="0.5"/>
    <line x1="9.466" y1="8.802" x2="8.6947" y2="5.0786" stroke="black" stroke-width="0.5"/>
    <line x1="8.6947" y1="5.0786" x2="15.1977" y2="3.7869" stroke="black" stroke-width="0.5"/>
    <line x1="15.1977" y1="3.7869" x2="16.3028" y2="4.499" stroke="black" stroke-width="0.5"/>
    <line x1="16.3028" y1="4.499" x2="7.9248" y2="4.6966" stroke="black" stroke-width="0.5"/>
    <line x1="7.9248" y1="4.6966" x2="8.4013" y2="-8.0019" stroke="black" stroke-width="0.5"/>
    <line x1="10.8957" y1="8.2365" x2="16.8428" y2="14.776" stroke="black" stroke-width="0.5"/>
    <line x1="16.8428" y1="14.776" x2="-5.4423" y2="15.2774" stroke="black" stroke-width="0.5"/>
    <line x1="-5.4423" y1="15.2774" x2="26.018" y2="-1.0959" stroke="black" stroke-width="0.5"/>
    <line x1="26.018" y1="-1.0959" x2="12.1841" y2="-0.1301" stroke="black" stroke-width="0.5"/>
    <line x1="12.1841" y1="-0.1301" x2="11.2196" y2="-8.0601" stroke="black" stroke-width="0.5"/>
    <line x1="13.4062" y1="5.4451" x2="11.8854" y2="7.5305" stroke="black" stroke-width="0.5"/>
    <line x1="11.8854" y1="7.5305" x2="26.9298" y2="54.0544" stroke="black" stroke-width="0.5"/>
    <line x1="26.9298" y1="54.0544" x2="21.8225" y2="34.186" stroke="black" stroke-width="0.5"/>
    <line x1="21.8225" y1="34.186" x2="13.4062" y2="5.4451" stroke="black" stroke-width="0.5"/>
    <line x1="12.1977" y1="6.9769" x2="27.6971" y2="-3.629" stroke="black" stroke-width="0.5"/>
    <line x1="27.6971" y1="-3.629" x2="7.8147" y2="21.7492" stroke="black" stroke-width="0.5"/>
    <line x1="7.8147" y1="21.7492" x2="17.4397" y2="9.7675" stroke="black" stroke-width="0.5"/>
    <line x1="17.4397" y1="9.7675" x2="12.1977" y2="6.9769" stroke="black" stroke-width="0.5"/>
    <line x1="31.9109" y1="1.8092" x2="9.2426" y2="14.8762" stroke="black" stroke-width="0.5"/>
    <line x1="9.2426" y1="14.8762" x2="27.3293" y2="-1.1432" stroke="black" stroke-width="0.5"/>
    <line x1="27.3293" y1="-1.1432" x2="12.1271" y2="16.9399" stroke="black" stroke-width="0.5"/>
    <line x1="12.1271" y1="16.9399" x2="31.9109" y2="1.8092" stroke="black" stroke-width="0.5"/>
    <line x1="-3.9763" y1="0.9767" x2="16.1869" y2="10.8698" stroke="black" stroke-width="0.5"/>
  </g>
</svg>