<svg xmlns="http://www.w3.org/2000/svg" viewBox="-10.9411 -7.8235 63.2893 52">
  <g transform="translate(0, 36.353) scale(1, -1)">
    <line x1="0" y1="0" x2="15.2826" y2="15.8255" stroke="black" stroke-width="0.5"/>
    <line x1="15.2826" y1="15.8255" x2="-6.064" y2="21.1478" stroke="black" stroke-width="0.5"/>
    <line x1="-6.064" y1="21.1478" x2="0" y2="0" stroke="black" stroke-width="0.5"/>
    <line x1="-0.9679" y1="-3.8816" x2="19.1277" y2="16.9278" stroke="black" stroke-width="0.5"/>
    <line x1="19.1277" y1="16.9278" x2="-8.9411" y2="23.9267" stroke="black" stroke-width="0.5"/>
    <line x1="-8.9411" y1="23.9267" x2="-0.9679" y2="-3.8816" stroke="black" stroke-width="0.5"/>
    <line x1="-0.9679" y1="-3.8816" x2="-0.968" y2="-5.8235" stroke="black" stroke-width="0.5"/>
    <line x1="-0.968" y1="-5.8235" x2="50.3482" y2="-5.8235" stroke="black" stroke-width="0.5"/>
    <line x1="50.3482" y1="-5.8235" x2="50.3482" y2="42.1765" stroke="black" stroke-width="0.5"/>
    <line x1="50.3482" y1="42.1765" x2="-8.9408" y2="42.1765" stroke="black" stroke-width="0.5"/>
    <line x1="-8.9408" y1="42.1765" x2="-8.9411" y2="23.9267" stroke="black" stroke-width="0.5"/>
    <line x1="4.0323" y1="1.2963" x2="4.0322" y2="-0.8235" stroke="black" stroke-width="0.5"/>
    <line x1="4.0322" y1="-0.8235" x2="45.3482" y2="-0.8235" stroke="black" stroke-width="0.5"/>
    <line x1="45.3482" y1="-0.8235" x2="45.3483" y2="37.1764" stroke="black" stroke-width="0.5"/>
    <line x1="45.3483" y1="37.1764" x2="-3.9405" y2="37.1766" stroke="black" stroke-width="0.5"/>
    <line x1="-3.9405" y1="37.1766" x2="-3.9407" y2="22.6798" stroke="black" stroke-width="0.5"/>
    <line x1="45.3482" y1="20.1764" x2="45.3482" y2="16.1764" stroke="black" stroke-width="0.5"/>
    <line x1="45.3482" y1="16.1764" x2="50.3482" y2="16.1764" stroke="black" stroke-width="0.5"/>
    <line x1="50.3482" y1="16.1764" x2="50.3482" y2="20.1764" stroke="black" stroke-width="0.5"/>
    <line x1="50.3482" y1="20.1764" x2="45.3482" y2="20.1764" stroke="black" stroke-width="0.5"/>
    <line x1="33.3483" y1="37.1764" x2="27.3485" y2="37.1765" stroke="black" stroke-width="0.5"/>
    <line x1="27.3485" y1="37.1765" x2="27.3484" y2="-0.8235" stroke="black" stroke-width="0.5"/>
    <line x1="27.3484" y1="-0.8235" x2="33.3482" y2="-0.8235" stroke="black" stroke-width="0.5"/>
    <line x1="33.3482" y1="-0.8235" x2="33.3483" y2="37.1764" stroke="black" stroke-width="0.5"/>
    <line x1="31.3483" y1="35.1765" x2="29.3484" y2="35.1765" stroke="black" stroke-width="0.5"/>
    <line x1="29.3484" y1="35.1765" x2="29.3482" y2="1.1765" stroke="black" stroke-width="0.5"/>
    <line x1="29.3482" y1="1.1765" x2="31.3482" y2="1.1765" stroke="black" stroke-width="0.5"/>
    <line x1="31.3482" y1="1.1765" x2="31.3483" y2="35.1765" stroke="black" stroke-width="0.5"/>
    <line x1="5.8486" y1="18.1776" x2="27.3484" y2="18.1765" stroke="black" stroke-width="0.5"/>
  </g>
</svg>