<svg xmlns="http://www.w3.org/2000/svg" viewBox="-15.5 -47.8 42.0 58.5" width="600" height="600">
  <rect x="-15.5" y="-47.8" width="42.0" height="58.5" fill="#1a1a2e"/>
  <g data-layer="surfaces" opacity="0.25">
    <path d="M12.728,-20.280 L12.825,-20.255 L12.826,-20.421 L17.882,-20.409 L17.897,-42.738 L-10.521,-42.787 L-10.137,-26.281 L-6.749,-25.392 L-6.571,-37.835 L-5.952,-37.830 L-5.952,-37.836 L12.773,-37.691Z" fill="#4488cc" stroke="none"/>
    <path d="M0.388,-23.519 L12.728,-20.280 L12.773,-37.691 L-5.952,-37.836 L-5.952,-37.830 L0.473,-37.783Z" fill="#44cc88" stroke="none"/>
    <path d="M2.658,0.646 L-1.631,4.879 L-1.986,5.666 L17.864,5.757 L17.878,-14.372 L12.700,-9.263 L12.675,0.777Z" fill="#cc8844" stroke="none"/>
    <path d="M6.490,-6.334 L12.708,-12.403 L12.721,-17.348 L6.995,-19.068 L0.361,-19.031 L0.267,-3.241Z" fill="#cc44aa" stroke="none"/>
    <path d="M-1.650,-24.053 L0.388,-23.519 L0.473,-37.783 L-5.952,-37.830 L-5.169,-24.977 L-4.170,-24.715 L-4.063,-35.814 L-1.584,-35.797Z" fill="#88cc44" stroke="none"/>
    <path d="M12.700,-9.263 L2.658,0.646 L12.675,0.777Z" fill="#44aacc" stroke="none"/>
    <path d="M6.995,-19.068 L12.721,-17.348 L12.728,-20.280 L0.388,-23.519 L0.373,-21.056 L6.995,-19.068 L11.093,-19.090Z" fill="#aa44cc" stroke="none"/>
    <path d="M-1.746,-6.901 L-0.699,-2.761 L0.267,-3.241 L0.361,-19.031 L-1.678,-19.020Z" fill="#cccc44" stroke="none"/>
    <path d="M-4.170,-24.715 L-1.650,-24.053 L-1.584,-35.797 L-4.063,-35.814Z" fill="#4488cc" stroke="none"/>
    <path d="M6.490,-6.334 L0.249,-0.243 L0.244,0.615 L2.658,0.646 L12.700,-9.263 L12.701,-9.421Z" fill="#44cc88" stroke="none"/>
    <path d="M-4.360,-5.118 L-6.905,-14.442 L-7.115,0.283 L-6.849,0.296 L-3.356,-1.440 L-3.379,-1.522 L-4.395,-1.573Z" fill="#cc8844" stroke="none"/>
    <path d="M-1.746,-6.901 L-4.247,-16.789 L-4.360,-5.118 L-3.379,-1.522 L-3.208,-1.514 L-1.772,-2.228Z" fill="#cc44aa" stroke="none"/>
    <path d="M-4.247,-16.789 L-4.807,-19.003 L-6.840,-18.991 L-6.905,-14.442 L-4.360,-5.118Z" fill="#88cc44" stroke="none"/>
    <path d="M-4.247,-16.789 L-1.746,-6.901 L-1.678,-19.020 L-4.226,-19.006Z" fill="#44aacc" stroke="none"/>
    <path d="M-6.749,-25.392 L-10.137,-26.281 L-8.145,-18.984 L-6.840,-18.991Z" fill="#aa44cc" stroke="none"/>
    <path d="M16.586,-16.187 L12.708,-12.403 L12.701,-9.421 L12.998,-9.569 L12.701,-9.421 L12.700,-9.263 L17.878,-14.372 L17.879,-16.410 L15.832,-16.414Z" fill="#cccc44" stroke="none"/>
    <path d="M12.810,-17.321 L15.832,-16.414 L17.879,-16.410 L17.881,-18.928 L12.825,-20.255Z" fill="#4488cc" stroke="none"/>
    <path d="M-6.749,-25.392 L-5.169,-24.977 L-5.952,-37.830 L-6.571,-37.835Z" fill="#44cc88" stroke="none"/>
    <path d="M-5.795,-22.909 L-4.193,-22.427 L-4.170,-24.715 L-5.169,-24.977 L-5.169,-24.972 L-5.169,-24.977 L-6.749,-25.392 L-6.840,-18.991 L-4.807,-19.003Z" fill="#cc8844" stroke="none"/>
    <path d="M-1.631,4.879 L2.658,0.646 L0.244,0.615 L0.244,0.645 L-0.591,0.604 L-2.806,0.575Z" fill="#cc44aa" stroke="none"/>
    <path d="M0.249,-0.243 L6.490,-6.334 L0.267,-3.241Z" fill="#88cc44" stroke="none"/>
    <path d="M12.708,-12.403 L6.490,-6.334 L12.701,-9.421Z" fill="#44aacc" stroke="none"/>
    <path d="M12.708,-12.403 L16.586,-16.187 L15.832,-16.414 L12.805,-16.418 L12.810,-17.321 L12.721,-17.348Z" fill="#aa44cc" stroke="none"/>
    <path d="M17.878,-14.372 L21.525,-17.972 L17.953,-18.909 L17.949,-16.410 L17.879,-16.410Z" fill="#cccc44" stroke="none"/>
    <path d="M-1.663,-21.668 L-4.193,-22.427 L-4.226,-19.006 L-1.678,-19.020Z" fill="#4488cc" stroke="none"/>
    <path d="M0.249,-0.243 L0.000,0.000 L-0.699,-2.761 L-1.772,-2.228 L-1.776,-1.443 L-3.208,-1.514 L-3.356,-1.440 L-2.828,0.494 L-0.591,0.604 L0.244,0.615Z" fill="#44cc88" stroke="none"/>
    <path d="M6.995,-19.068 L0.373,-21.056 L0.361,-19.031Z" fill="#cc8844" stroke="none"/>
    <path d="M-4.193,-22.427 L-1.663,-21.668 L-1.650,-24.053 L-4.170,-24.715Z" fill="#cc44aa" stroke="none"/>
    <path d="M-1.663,-21.668 L0.373,-21.056 L0.388,-23.519 L-1.650,-24.053Z" fill="#88cc44" stroke="none"/>
    <path d="M0.373,-21.056 L-1.663,-21.668 L-1.678,-19.020 L0.361,-19.031Z" fill="#44aacc" stroke="none"/>
    <path d="M12.825,-20.255 L17.881,-18.928 L17.882,-20.409 L12.826,-20.421Z" fill="#aa44cc" stroke="none"/>
    <path d="M-4.193,-22.427 L-5.795,-22.909 L-4.807,-19.003 L-4.226,-19.006Z" fill="#cccc44" stroke="none"/>
    <path d="M-2.828,0.494 L-3.356,-1.440 L-6.849,0.296Z" fill="#4488cc" stroke="none"/>
    <path d="M-8.145,-18.984 L-6.905,-14.442 L-6.840,-18.991Z" fill="#44cc88" stroke="none"/>
    <path d="M-0.699,-2.761 L-1.746,-6.901 L-1.772,-2.228Z" fill="#cc8844" stroke="none"/>
    <path d="M0.000,0.000 L0.249,-0.243 L0.267,-3.241 L-0.699,-2.761Z" fill="#cc44aa" stroke="none"/>
    <path d="M-3.379,-1.522 L-4.360,-5.118 L-4.395,-1.573Z" fill="#88cc44" stroke="none"/>
    <path d="M15.832,-16.414 L12.810,-17.321 L12.805,-16.418Z" fill="#44aacc" stroke="none"/>
    <path d="M-2.806,0.575 L-2.828,0.494 L-6.849,0.296 L-7.293,0.516Z" fill="#aa44cc" stroke="none"/>
    <path d="M-4.807,-19.003 L-4.247,-16.789 L-4.226,-19.006Z" fill="#cccc44" stroke="none"/>
    <path d="M-1.772,-2.228 L-3.208,-1.514 L-1.776,-1.443Z" fill="#4488cc" stroke="none"/>
    <path d="M12.721,-17.348 L12.810,-17.321 L12.825,-20.255 L12.728,-20.280Z" fill="#44cc88" stroke="none"/>
    <path d="M17.953,-18.909 L17.881,-18.928 L17.879,-16.410 L17.949,-16.410Z" fill="#cc8844" stroke="none"/>
    <path d="M17.881,-18.928 L17.953,-18.909 L17.956,-20.409 L17.882,-20.409Z" fill="#cc44aa" stroke="none"/>
  </g>
  <g data-layer="surface-labels">
    <text x="5.587" y="-35.313" fill="#4488cc" font-size="3" font-family="sans-serif" text-anchor="middle" dominant-baseline="central" font-weight="bold" opacity="0.6">[0]</text>
    <text x="6.792" y="-29.787" fill="#44cc88" font-size="3" font-family="sans-serif" text-anchor="middle" dominant-baseline="central" font-weight="bold" opacity="0.6">[1]</text>
    <text x="11.696" y="-0.458" fill="#cc8844" font-size="3" font-family="sans-serif" text-anchor="middle" dominant-baseline="central" font-weight="bold" opacity="0.6">[2]</text>
    <text x="5.553" y="-12.567" fill="#cc44aa" font-size="3" font-family="sans-serif" text-anchor="middle" dominant-baseline="central" font-weight="bold" opacity="0.6">[3]</text>
    <text x="-2.327" y="-31.800" fill="#88cc44" font-size="3" font-family="sans-serif" text-anchor="middle" dominant-baseline="central" font-weight="bold" opacity="0.6">[4]</text>
    <text x="9.344" y="-2.613" fill="#44aacc" font-size="3" font-family="sans-serif" text-anchor="middle" dominant-baseline="central" font-weight="bold" opacity="0.6">[5]</text>
    <text x="6.731" y="-20.501" fill="#aa44cc" font-size="3" font-family="sans-serif" text-anchor="middle" dominant-baseline="central" font-weight="bold" opacity="0.6">[6]</text>
    <text x="-0.660" y="-11.445" fill="#cccc44" font-size="3" font-family="sans-serif" text-anchor="middle" dominant-baseline="central" font-weight="bold" opacity="0.6">[7]</text>
    <text x="-2.855" y="-30.076" fill="#4488cc" font-size="3" font-family="sans-serif" text-anchor="middle" dominant-baseline="central" font-weight="bold" opacity="0.6">[8]</text>
    <text x="5.594" y="-3.746" fill="#44cc88" font-size="3" font-family="sans-serif" text-anchor="middle" dominant-baseline="central" font-weight="bold" opacity="0.6">[9]</text>
    <text x="-5.913" y="-5.323" fill="#cc8844" font-size="3" font-family="sans-serif" text-anchor="middle" dominant-baseline="central" font-weight="bold" opacity="0.6">[10]</text>
    <text x="-3.208" y="-7.502" fill="#cc44aa" font-size="3" font-family="sans-serif" text-anchor="middle" dominant-baseline="central" font-weight="bold" opacity="0.6">[11]</text>
    <text x="-5.392" y="-13.873" fill="#88cc44" font-size="3" font-family="sans-serif" text-anchor="middle" dominant-baseline="central" font-weight="bold" opacity="0.6">[12]</text>
    <text x="-2.684" y="-14.859" fill="#44aacc" font-size="3" font-family="sans-serif" text-anchor="middle" dominant-baseline="central" font-weight="bold" opacity="0.6">[13]</text>
    <text x="-8.050" y="-22.904" fill="#aa44cc" font-size="3" font-family="sans-serif" text-anchor="middle" dominant-baseline="central" font-weight="bold" opacity="0.6">[14]</text>
    <text x="15.212" y="-13.265" fill="#cccc44" font-size="3" font-family="sans-serif" text-anchor="middle" dominant-baseline="central" font-weight="bold" opacity="0.6">[15]</text>
    <text x="15.298" y="-18.147" fill="#4488cc" font-size="3" font-family="sans-serif" text-anchor="middle" dominant-baseline="central" font-weight="bold" opacity="0.6">[16]</text>
    <text x="-6.087" y="-30.593" fill="#44cc88" font-size="3" font-family="sans-serif" text-anchor="middle" dominant-baseline="central" font-weight="bold" opacity="0.6">[17]</text>
    <text x="-5.758" y="-22.322" fill="#cc8844" font-size="3" font-family="sans-serif" text-anchor="middle" dominant-baseline="central" font-weight="bold" opacity="0.6">[18]</text>
    <text x="-0.594" y="2.035" fill="#cc44aa" font-size="3" font-family="sans-serif" text-anchor="middle" dominant-baseline="central" font-weight="bold" opacity="0.6">[19]</text>
    <text x="2.335" y="-3.273" fill="#88cc44" font-size="3" font-family="sans-serif" text-anchor="middle" dominant-baseline="central" font-weight="bold" opacity="0.6">[20]</text>
    <text x="10.633" y="-9.386" fill="#44aacc" font-size="3" font-family="sans-serif" text-anchor="middle" dominant-baseline="central" font-weight="bold" opacity="0.6">[21]</text>
    <text x="14.036" y="-15.079" fill="#aa44cc" font-size="3" font-family="sans-serif" text-anchor="middle" dominant-baseline="central" font-weight="bold" opacity="0.6">[22]</text>
    <text x="19.120" y="-17.078" fill="#cccc44" font-size="3" font-family="sans-serif" text-anchor="middle" dominant-baseline="central" font-weight="bold" opacity="0.6">[23]</text>
    <text x="-2.994" y="-20.537" fill="#4488cc" font-size="3" font-family="sans-serif" text-anchor="middle" dominant-baseline="central" font-weight="bold" opacity="0.6">[24]</text>
    <text x="-1.472" y="-0.712" fill="#44cc88" font-size="3" font-family="sans-serif" text-anchor="middle" dominant-baseline="central" font-weight="bold" opacity="0.6">[25]</text>
    <text x="2.576" y="-19.718" fill="#cc8844" font-size="3" font-family="sans-serif" text-anchor="middle" dominant-baseline="central" font-weight="bold" opacity="0.6">[26]</text>
    <text x="-2.910" y="-23.213" fill="#cc44aa" font-size="3" font-family="sans-serif" text-anchor="middle" dominant-baseline="central" font-weight="bold" opacity="0.6">[27]</text>
    <text x="-0.633" y="-22.573" fill="#88cc44" font-size="3" font-family="sans-serif" text-anchor="middle" dominant-baseline="central" font-weight="bold" opacity="0.6">[28]</text>
    <text x="-0.697" y="-20.200" fill="#44aacc" font-size="3" font-family="sans-serif" text-anchor="middle" dominant-baseline="central" font-weight="bold" opacity="0.6">[29]</text>
    <text x="16.026" y="-19.914" fill="#aa44cc" font-size="3" font-family="sans-serif" text-anchor="middle" dominant-baseline="central" font-weight="bold" opacity="0.6">[30]</text>
    <text x="-4.798" y="-21.113" fill="#cccc44" font-size="3" font-family="sans-serif" text-anchor="middle" dominant-baseline="central" font-weight="bold" opacity="0.6">[31]</text>
    <text x="-4.345" y="-0.217" fill="#4488cc" font-size="3" font-family="sans-serif" text-anchor="middle" dominant-baseline="central" font-weight="bold" opacity="0.6">[32]</text>
    <text x="-7.297" y="-17.472" fill="#44cc88" font-size="3" font-family="sans-serif" text-anchor="middle" dominant-baseline="central" font-weight="bold" opacity="0.6">[33]</text>
    <text x="-1.405" y="-3.963" fill="#cc8844" font-size="3" font-family="sans-serif" text-anchor="middle" dominant-baseline="central" font-weight="bold" opacity="0.6">[34]</text>
    <text x="-0.081" y="-1.834" fill="#cc44aa" font-size="3" font-family="sans-serif" text-anchor="middle" dominant-baseline="central" font-weight="bold" opacity="0.6">[35]</text>
    <text x="-4.044" y="-2.738" fill="#88cc44" font-size="3" font-family="sans-serif" text-anchor="middle" dominant-baseline="central" font-weight="bold" opacity="0.6">[36]</text>
    <text x="13.816" y="-16.718" fill="#44aacc" font-size="3" font-family="sans-serif" text-anchor="middle" dominant-baseline="central" font-weight="bold" opacity="0.6">[37]</text>
    <text x="-5.291" y="0.461" fill="#aa44cc" font-size="3" font-family="sans-serif" text-anchor="middle" dominant-baseline="central" font-weight="bold" opacity="0.6">[38]</text>
    <text x="-4.427" y="-18.266" fill="#cccc44" font-size="3" font-family="sans-serif" text-anchor="middle" dominant-baseline="central" font-weight="bold" opacity="0.6">[39]</text>
    <text x="-2.252" y="-1.728" fill="#4488cc" font-size="3" font-family="sans-serif" text-anchor="middle" dominant-baseline="central" font-weight="bold" opacity="0.6">[40]</text>
    <text x="12.771" y="-18.821" fill="#44cc88" font-size="3" font-family="sans-serif" text-anchor="middle" dominant-baseline="central" font-weight="bold" opacity="0.6">[41]</text>
    <text x="17.915" y="-17.673" fill="#cc8844" font-size="3" font-family="sans-serif" text-anchor="middle" dominant-baseline="central" font-weight="bold" opacity="0.6">[42]</text>
    <text x="17.918" y="-19.667" fill="#cc44aa" font-size="3" font-family="sans-serif" text-anchor="middle" dominant-baseline="central" font-weight="bold" opacity="0.6">[43]</text>
  </g>
  <g data-layer="edges">
    <line x1="0.000" y1="0.000" x2="16.586" y2="-16.187" stroke="#e8e8e8" stroke-width="0.4"/>
    <line x1="16.586" y1="-16.187" x2="-5.795" y2="-22.909" stroke="#e8e8e8" stroke-width="0.4"/>
    <line x1="-5.795" y1="-22.909" x2="0.000" y2="0.000" stroke="#e8e8e8" stroke-width="0.4"/>
    <line x1="-1.631" y1="4.879" x2="21.525" y2="-17.972" stroke="#e8e8e8" stroke-width="0.4"/>
    <line x1="21.525" y1="-17.972" x2="-10.137" y2="-26.281" stroke="#e8e8e8" stroke-width="0.4"/>
    <line x1="-10.137" y1="-26.281" x2="-1.631" y2="4.879" stroke="#e8e8e8" stroke-width="0.4"/>
    <line x1="-1.631" y1="4.879" x2="-1.986" y2="5.666" stroke="#e8e8e8" stroke-width="0.4"/>
    <line x1="-1.986" y1="5.666" x2="17.864" y2="5.757" stroke="#e8e8e8" stroke-width="0.4"/>
    <line x1="17.864" y1="5.757" x2="17.897" y2="-42.738" stroke="#e8e8e8" stroke-width="0.4"/>
    <line x1="17.897" y1="-42.738" x2="-10.521" y2="-42.787" stroke="#e8e8e8" stroke-width="0.4"/>
    <line x1="-10.521" y1="-42.787" x2="-10.137" y2="-26.281" stroke="#e8e8e8" stroke-width="0.4"/>
    <line x1="12.998" y1="-9.569" x2="-7.293" y2="0.516" stroke="#e8e8e8" stroke-width="0.4"/>
    <line x1="-7.293" y1="0.516" x2="12.675" y2="0.777" stroke="#e8e8e8" stroke-width="0.4"/>
    <line x1="12.675" y1="0.777" x2="12.773" y2="-37.691" stroke="#e8e8e8" stroke-width="0.4"/>
    <line x1="12.773" y1="-37.691" x2="-5.952" y2="-37.836" stroke="#e8e8e8" stroke-width="0.4"/>
    <line x1="-5.952" y1="-37.836" x2="-5.169" y2="-24.972" stroke="#e8e8e8" stroke-width="0.4"/>
    <line x1="12.826" y1="-20.421" x2="12.805" y2="-16.418" stroke="#e8e8e8" stroke-width="0.4"/>
    <line x1="12.805" y1="-16.418" x2="17.949" y2="-16.410" stroke="#e8e8e8" stroke-width="0.4"/>
    <line x1="17.949" y1="-16.410" x2="17.956" y2="-20.409" stroke="#e8e8e8" stroke-width="0.4"/>
    <line x1="17.956" y1="-20.409" x2="12.826" y2="-20.421" stroke="#e8e8e8" stroke-width="0.4"/>
    <line x1="0.473" y1="-37.783" x2="-6.571" y2="-37.835" stroke="#e8e8e8" stroke-width="0.4"/>
    <line x1="-6.571" y1="-37.835" x2="-7.115" y2="0.283" stroke="#e8e8e8" stroke-width="0.4"/>
    <line x1="-7.115" y1="0.283" x2="0.244" y2="0.645" stroke="#e8e8e8" stroke-width="0.4"/>
    <line x1="0.244" y1="0.645" x2="0.473" y2="-37.783" stroke="#e8e8e8" stroke-width="0.4"/>
    <line x1="-1.584" y1="-35.797" x2="-4.063" y2="-35.814" stroke="#e8e8e8" stroke-width="0.4"/>
    <line x1="-4.063" y1="-35.814" x2="-4.395" y2="-1.573" stroke="#e8e8e8" stroke-width="0.4"/>
    <line x1="-4.395" y1="-1.573" x2="-1.776" y2="-1.443" stroke="#e8e8e8" stroke-width="0.4"/>
    <line x1="-1.776" y1="-1.443" x2="-1.584" y2="-35.797" stroke="#e8e8e8" stroke-width="0.4"/>
    <line x1="11.093" y1="-19.090" x2="-8.346" y2="-18.983" stroke="#e8e8e8" stroke-width="0.4"/>
    <circle cx="0.000" cy="0.000" r="0.6" fill="#e8e8e8"/>
    <circle cx="16.586" cy="-16.187" r="0.6" fill="#e8e8e8"/>
    <circle cx="-5.795" cy="-22.909" r="0.6" fill="#e8e8e8"/>
    <circle cx="-1.631" cy="4.879" r="0.6" fill="#e8e8e8"/>
    <circle cx="21.525" cy="-17.972" r="0.6" fill="#e8e8e8"/>
    <circle cx="-10.137" cy="-26.281" r="0.6" fill="#e8e8e8"/>
    <circle cx="11.093" cy="-19.090" r="0.6" fill="#e8e8e8"/>
    <circle cx="-1.986" cy="5.666" r="0.6" fill="#e8e8e8"/>
    <circle cx="17.864" cy="5.757" r="0.6" fill="#e8e8e8"/>
    <circle cx="17.897" cy="-42.738" r="0.6" fill="#e8e8e8"/>
    <circle cx="-10.521" cy="-42.787" r="0.6" fill="#e8e8e8"/>
    <circle cx="12.998" cy="-9.569" r="0.6" fill="#e8e8e8"/>
    <circle cx="-5.169" cy="-24.972" r="0.6" fill="#e8e8e8"/>
    <circle cx="-7.293" cy="0.516" r="0.6" fill="#e8e8e8"/>
    <circle cx="12.675" cy="0.777" r="0.6" fill="#e8e8e8"/>
    <circle cx="12.773" cy="-37.691" r="0.6" fill="#e8e8e8"/>
    <circle cx="-5.952" cy="-37.836" r="0.6" fill="#e8e8e8"/>
    <circle cx="12.826" cy="-20.421" r="0.6" fill="#e8e8e8"/>
    <circle cx="12.804" cy="-18.434" r="0.6" fill="#e8e8e8"/>
    <circle cx="12.805" cy="-16.418" r="0.6" fill="#e8e8e8"/>
    <circle cx="17.949" cy="-16.410" r="0.6" fill="#e8e8e8"/>
    <circle cx="17.956" cy="-20.409" r="0.6" fill="#e8e8e8"/>
    <circle cx="0.473" cy="-37.783" r="0.6" fill="#e8e8e8"/>
    <circle cx="-6.571" cy="-37.835" r="0.6" fill="#e8e8e8"/>
    <circle cx="-7.115" cy="0.283" r="0.6" fill="#e8e8e8"/>
    <circle cx="0.244" cy="0.645" r="0.6" fill="#e8e8e8"/>
    <circle cx="-1.584" cy="-35.797" r="0.6" fill="#e8e8e8"/>
    <circle cx="-4.063" cy="-35.814" r="0.6" fill="#e8e8e8"/>
    <circle cx="-4.395" cy="-1.573" r="0.6" fill="#e8e8e8"/>
    <circle cx="-1.776" cy="-1.443" r="0.6" fill="#e8e8e8"/>
    <circle cx="-8.346" cy="-18.983" r="0.6" fill="#e8e8e8"/>
  </g>
  <g data-layer="construction">
  </g>
  <g data-layer="annotations">
    <line x1="0.364" y1="0.944" x2="2.764" y2="0.944" stroke="#ff6b6b" stroke-width="0.3"/>
    <line x1="0.724" y1="0.944" x2="0.364" y2="1.544" stroke="#ff6b6b" stroke-width="0.2"/>
    <line x1="1.324" y1="0.944" x2="0.964" y2="1.544" stroke="#ff6b6b" stroke-width="0.2"/>
    <line x1="1.924" y1="0.944" x2="1.564" y2="1.544" stroke="#ff6b6b" stroke-width="0.2"/>
    <line x1="2.524" y1="0.944" x2="2.164" y2="1.544" stroke="#ff6b6b" stroke-width="0.2"/>
    <line x1="7.005" y1="-14.070" x2="8.205" y2="-14.070" stroke="#ff6b6b" stroke-width="0.3" transform="rotate(-44.3 7.605 -13.830)"/>
    <line x1="7.005" y1="-13.590" x2="8.205" y2="-13.590" stroke="#ff6b6b" stroke-width="0.3" transform="rotate(-44.3 7.605 -13.830)"/>
    <line x1="4.107" y1="-25.524" x2="5.307" y2="-25.524" stroke="#ff6b6b" stroke-width="0.3" transform="rotate(-163.3 4.707 -25.284)"/>
    <line x1="4.107" y1="-25.044" x2="5.307" y2="-25.044" stroke="#ff6b6b" stroke-width="0.3" transform="rotate(-163.3 4.707 -25.284)"/>
    <line x1="3.051" y1="-4.948" x2="4.251" y2="-4.948" stroke="#ff6b6b" stroke-width="0.3" transform="rotate(-44.3 3.651 -4.708)"/>
    <line x1="3.051" y1="-4.468" x2="4.251" y2="-4.468" stroke="#ff6b6b" stroke-width="0.3" transform="rotate(-44.3 3.651 -4.708)"/>
    <line x1="-8.140" y1="-8.309" x2="-6.940" y2="-8.309" stroke="#ff6b6b" stroke-width="0.3" transform="rotate(75.8 -7.540 -8.069)"/>
    <line x1="-8.140" y1="-7.829" x2="-6.940" y2="-7.829" stroke="#ff6b6b" stroke-width="0.3" transform="rotate(75.8 -7.540 -8.069)"/>
    <path d="M5.911,-7.445 A0.720,0.720 0 1,0 5.191,-8.165" fill="none" stroke="#ff6b6b" stroke-width="0.3"/>
    <polygon points="5.191,-8.525 5.491,-8.045 4.891,-8.045" fill="#ff6b6b"/>
    <line x1="9.098" y1="-1.156" x2="10.298" y2="-1.156" stroke="#ff6b6b" stroke-width="0.3" transform="rotate(-44.6 9.698 -0.916)"/>
    <line x1="9.098" y1="-0.676" x2="10.298" y2="-0.676" stroke="#ff6b6b" stroke-width="0.3" transform="rotate(-44.6 9.698 -0.916)"/>
    <line x1="4.845" y1="-16.736" x2="6.045" y2="-16.736" stroke="#ff6b6b" stroke-width="0.3" transform="rotate(-165.3 5.445 -16.496)"/>
    <line x1="4.845" y1="-16.256" x2="6.045" y2="-16.256" stroke="#ff6b6b" stroke-width="0.3" transform="rotate(-165.3 5.445 -16.496)"/>
    <line x1="11.626" y1="-1.281" x2="12.826" y2="-1.281" stroke="#ff6b6b" stroke-width="0.3" transform="rotate(-44.6 12.226 -1.041)"/>
    <line x1="11.626" y1="-0.801" x2="12.826" y2="-0.801" stroke="#ff6b6b" stroke-width="0.3" transform="rotate(-44.6 12.226 -1.041)"/>
    <line x1="-4.205" y1="-5.435" x2="-3.005" y2="-5.435" stroke="#ff6b6b" stroke-width="0.3" transform="rotate(74.7 -3.605 -5.195)"/>
    <line x1="-4.205" y1="-4.955" x2="-3.005" y2="-4.955" stroke="#ff6b6b" stroke-width="0.3" transform="rotate(74.7 -3.605 -5.195)"/>
    <path d="M-7.611,-10.698 A0.720,0.720 0 1,0 -8.331,-11.418" fill="none" stroke="#ff6b6b" stroke-width="0.3"/>
    <polygon points="-8.331,-11.778 -8.031,-11.298 -8.631,-11.298" fill="#ff6b6b"/>
    <line x1="3.096" y1="2.784" x2="0.861" y2="0.494" stroke="#ff6b6b" stroke-width="0.15" opacity="0.6"/>
    <line x1="19.681" y1="-13.403" x2="17.446" y2="-15.693" stroke="#ff6b6b" stroke-width="0.15" opacity="0.6"/>
    <line x1="1.210" y1="0.852" x2="17.795" y2="-15.335" stroke="#ff6b6b" stroke-width="0.2"/>
    <polygon points="1.210,0.852 1.681,-0.097 2.170,0.404" fill="#ff6b6b"/>
    <polygon points="17.795,-15.335 16.835,-14.887 17.324,-14.386" fill="#ff6b6b"/>
    <text x="9.503" y="-8.042" fill="#ff6b6b" font-size="1.8" font-family="sans-serif" text-anchor="middle" font-weight="bold">22</text>
    <line x1="17.486" y1="-5.376" x2="19.140" y2="-3.828" stroke="#ff6b6b" stroke-width="0.2"/>
    <polygon points="17.486,-5.376 17.816,-5.230 17.653,-5.057" fill="#ff6b6b"/>
    <polygon points="19.140,-3.828 18.974,-4.147 18.811,-3.973" fill="#ff6b6b"/>
    <text x="18.313" y="-5.402" fill="#ff6b6b" font-size="1.8" font-family="sans-serif" text-anchor="middle" font-weight="bold">-2</text>
    <text x="-0.979" y="-11.287" fill="#ff6b6b" font-size="2" font-family="sans-serif" text-anchor="middle">⊕</text>
    <path d="M12.762,-7.408 A4.000,4.000 0 0,0 11.540,-10.285" fill="none" stroke="#ff6b6b" stroke-width="0.3"/>
    <text x="13.548" y="-9.439" fill="#ff6b6b" font-size="1.6" font-family="sans-serif" text-anchor="middle" dominant-baseline="central">46°</text>
    <circle cx="16.714" cy="-21.950" r="0.36" fill="#ff6b6b" opacity="0.8"/>
    <line x1="7.450" y1="-22.892" x2="11.581" y2="-18.659" stroke="#ff6b6b" stroke-width="0.2"/>
    <polygon points="7.450,-22.892 8.292,-22.474 7.848,-22.040" fill="#ff6b6b"/>
    <polygon points="11.581,-18.659 11.183,-19.511 10.739,-19.077" fill="#ff6b6b"/>
    <text x="9.516" y="-21.576" fill="#ff6b6b" font-size="1.8" font-family="sans-serif" text-anchor="middle" font-weight="bold">8.42</text>
    <path d="M9.996,-20.937 A0.720,0.720 0 1,0 9.276,-21.657" fill="none" stroke="#ff6b6b" stroke-width="0.3"/>
    <polygon points="9.276,-22.017 9.576,-21.537 8.976,-21.537" fill="#ff6b6b"/>
    <path d="M-4.503,8.245 A1.500,1.500 0 0,1 -6.003,9.745" fill="none" stroke="#ff6b6b" stroke-width="0.3"/>
    <text x="-4.094" y="10.154" fill="#ff6b6b" font-size="1.6" font-family="sans-serif" text-anchor="middle" dominant-baseline="central">-90°</text>
    <path d="M2.007,11.830 A4.000,4.000 0 0,1 2.007,11.830" fill="none" stroke="#ff6b6b" stroke-width="0.3"/>
    <text x="3.207" y="11.830" fill="#ff6b6b" font-size="1.6" font-family="sans-serif" text-anchor="middle" dominant-baseline="central">0°</text>
    <path d="M17.741,8.162 A4.000,4.000 0 0,0 13.741,4.162" fill="none" stroke="#ff6b6b" stroke-width="0.3"/>
    <text x="17.418" y="4.485" fill="#ff6b6b" font-size="1.6" font-family="sans-serif" text-anchor="middle" dominant-baseline="central">90°</text>
    <path d="M23.760,-43.859 A4.000,4.000 0 0,0 15.760,-43.859" fill="none" stroke="#ff6b6b" stroke-width="0.3"/>
    <text x="19.760" y="-49.059" fill="#ff6b6b" font-size="1.6" font-family="sans-serif" text-anchor="middle" dominant-baseline="central">180°</text>
    <path d="M-8.798,-39.639 A4.000,4.000 0 0,1 -12.798,-35.639" fill="none" stroke="#ff6b6b" stroke-width="0.3"/>
    <text x="-9.121" y="-35.962" fill="#ff6b6b" font-size="1.6" font-family="sans-serif" text-anchor="middle" dominant-baseline="central">-90°</text>
    <circle cx="14.211" cy="-3.480" r="0.36" fill="#ff6b6b" opacity="0.8"/>
    <circle cx="-2.099" cy="-27.044" r="0.36" fill="#ff6b6b" opacity="0.8"/>
    <path d="M3.286,-22.961 A0.720,0.720 0 1,0 2.566,-23.681" fill="none" stroke="#ff6b6b" stroke-width="0.3"/>
    <polygon points="2.566,-24.041 2.866,-23.561 2.266,-23.561" fill="#ff6b6b"/>
    <line x1="-0.586" y1="6.413" x2="4.075" y2="-3.386" stroke="#ff6b6b" stroke-width="0.2"/>
    <polygon points="-0.586,6.413 -0.473,5.360 0.159,5.660" fill="#ff6b6b"/>
    <polygon points="4.075,-3.386 3.329,-2.633 3.961,-2.332" fill="#ff6b6b"/>
    <text x="1.744" y="0.714" fill="#ff6b6b" font-size="1.8" font-family="sans-serif" text-anchor="middle" font-weight="bold">5</text>
    <line x1="7.533" y1="6.188" x2="2.285" y2="1.123" stroke="#ff6b6b" stroke-width="0.2"/>
    <polygon points="7.533,6.188 6.571,5.745 7.057,5.242" fill="#ff6b6b"/>
    <polygon points="2.285,1.123 2.762,2.070 3.248,1.566" fill="#ff6b6b"/>
    <text x="4.909" y="2.856" fill="#ff6b6b" font-size="1.8" font-family="sans-serif" text-anchor="middle" font-weight="bold">5</text>
    <line x1="10.445" y1="-25.744" x2="5.288" y2="-25.711" stroke="#ff6b6b" stroke-width="0.2"/>
    <polygon points="10.445,-25.744 9.673,-25.469 9.670,-26.010" fill="#ff6b6b"/>
    <polygon points="5.288,-25.711 6.064,-25.445 6.060,-25.986" fill="#ff6b6b"/>
    <text x="7.867" y="-26.528" fill="#ff6b6b" font-size="1.8" font-family="sans-serif" text-anchor="middle" font-weight="bold">5</text>
    <line x1="4.238" y1="-48.301" x2="3.961" y2="-43.303" stroke="#ff6b6b" stroke-width="0.2"/>
    <polygon points="4.238,-48.301 4.459,-47.537 3.934,-47.566" fill="#ff6b6b"/>
    <polygon points="3.961,-43.303 4.265,-44.038 3.740,-44.067" fill="#ff6b6b"/>
    <text x="4.100" y="-46.602" fill="#ff6b6b" font-size="1.8" font-family="sans-serif" text-anchor="middle" font-weight="bold">5</text>
    <line x1="-12.553" y1="-35.509" x2="-7.784" y2="-32.379" stroke="#ff6b6b" stroke-width="0.2"/>
    <polygon points="-12.553,-35.509 -11.673,-35.290 -12.002,-34.789" fill="#ff6b6b"/>
    <polygon points="-7.784,-32.379 -8.335,-33.099 -8.664,-32.598" fill="#ff6b6b"/>
    <text x="-10.168" y="-34.744" fill="#ff6b6b" font-size="1.8" font-family="sans-serif" text-anchor="middle" font-weight="bold">5</text>
    <path d="M11.133,-13.026 A0.720,0.720 0 1,0 10.413,-13.746" fill="none" stroke="#ff6b6b" stroke-width="0.3"/>
    <polygon points="10.413,-14.106 10.713,-13.626 10.113,-13.626" fill="#ff6b6b"/>
    <line x1="20.309" y1="-20.911" x2="21.029" y2="-20.311" stroke="#ff6b6b" stroke-width="0.3" transform="rotate(90.3 20.669 -20.311)"/>
    <line x1="21.029" y1="-20.311" x2="20.309" y2="-19.711" stroke="#ff6b6b" stroke-width="0.3" transform="rotate(90.3 20.669 -20.311)"/>
    <line x1="20.789" y1="-20.911" x2="21.509" y2="-20.311" stroke="#ff6b6b" stroke-width="0.3" transform="rotate(90.3 20.669 -20.311)"/>
    <line x1="21.509" y1="-20.311" x2="20.789" y2="-19.711" stroke="#ff6b6b" stroke-width="0.3" transform="rotate(90.3 20.669 -20.311)"/>
    <line x1="25.446" y1="-20.901" x2="26.166" y2="-20.301" stroke="#ff6b6b" stroke-width="0.3" transform="rotate(-89.9 25.806 -20.301)"/>
    <line x1="26.166" y1="-20.301" x2="25.446" y2="-19.701" stroke="#ff6b6b" stroke-width="0.3" transform="rotate(-89.9 25.806 -20.301)"/>
    <line x1="25.926" y1="-20.901" x2="26.646" y2="-20.301" stroke="#ff6b6b" stroke-width="0.3" transform="rotate(-89.9 25.806 -20.301)"/>
    <line x1="26.646" y1="-20.301" x2="25.926" y2="-19.701" stroke="#ff6b6b" stroke-width="0.3" transform="rotate(-89.9 25.806 -20.301)"/>
    <line x1="16.870" y1="-24.922" x2="17.590" y2="-24.322" stroke="#ff6b6b" stroke-width="0.3" transform="rotate(0.1 17.230 -24.322)"/>
    <line x1="17.590" y1="-24.322" x2="16.870" y2="-23.722" stroke="#ff6b6b" stroke-width="0.3" transform="rotate(0.1 17.230 -24.322)"/>
    <line x1="17.350" y1="-24.922" x2="18.070" y2="-24.322" stroke="#ff6b6b" stroke-width="0.3" transform="rotate(0.1 17.230 -24.322)"/>
    <line x1="18.070" y1="-24.322" x2="17.350" y2="-23.722" stroke="#ff6b6b" stroke-width="0.3" transform="rotate(0.1 17.230 -24.322)"/>
    <line x1="16.884" y1="-28.922" x2="17.604" y2="-28.322" stroke="#ff6b6b" stroke-width="0.3" transform="rotate(-179.9 17.244 -28.322)"/>
    <line x1="17.604" y1="-28.322" x2="16.884" y2="-27.722" stroke="#ff6b6b" stroke-width="0.3" transform="rotate(-179.9 17.244 -28.322)"/>
    <line x1="17.364" y1="-28.922" x2="18.084" y2="-28.322" stroke="#ff6b6b" stroke-width="0.3" transform="rotate(-179.9 17.244 -28.322)"/>
    <line x1="18.084" y1="-28.322" x2="17.364" y2="-27.722" stroke="#ff6b6b" stroke-width="0.3" transform="rotate(-179.9 17.244 -28.322)"/>
    <line x1="17.699" y1="-24.803" x2="20.899" y2="-24.786" stroke="#ff6b6b" stroke-width="0.15" opacity="0.6"/>
    <line x1="17.679" y1="-20.800" x2="20.879" y2="-20.784" stroke="#ff6b6b" stroke-width="0.15" opacity="0.6"/>
    <line x1="20.399" y1="-24.789" x2="20.379" y2="-20.787" stroke="#ff6b6b" stroke-width="0.2"/>
    <polygon points="20.399,-24.789 20.606,-24.187 20.186,-24.190" fill="#ff6b6b"/>
    <polygon points="20.379,-20.787 20.592,-21.386 20.172,-21.388" fill="#ff6b6b"/>
    <text x="20.389" y="-23.588" fill="#ff6b6b" font-size="1.8" font-family="sans-serif" text-anchor="middle" font-weight="bold">4</text>
    <polyline points="19.199,-9.718 18.479,-9.718 18.479,-8.998" fill="none" stroke="#ff6b6b" stroke-width="0.3" transform="rotate(-89.7 18.479 -9.718)"/>
    <line x1="19.351" y1="-15.692" x2="19.259" y2="-15.729" stroke="#ff6b6b" stroke-width="0.2"/>
    <polygon points="19.351,-15.692 19.335,-15.692 19.339,-15.702" fill="#ff6b6b"/>
    <polygon points="19.259,-15.729 19.271,-15.719 19.274,-15.728" fill="#ff6b6b"/>
    <text x="19.305" y="-16.510" fill="#ff6b6b" font-size="1.8" font-family="sans-serif" text-anchor="middle" font-weight="bold">0</text>
    <line x1="9.636" y1="-21.022" x2="9.565" y2="-21.103" stroke="#ff6b6b" stroke-width="0.2"/>
    <polygon points="9.636,-21.022 9.621,-21.031 9.630,-21.038" fill="#ff6b6b"/>
    <polygon points="9.565,-21.103 9.571,-21.087 9.580,-21.095" fill="#ff6b6b"/>
    <text x="9.601" y="-21.863" fill="#ff6b6b" font-size="1.8" font-family="sans-serif" text-anchor="middle" font-weight="bold">0</text>
    <polygon points="15.670,-12.573 16.150,-11.973 15.670,-11.373 15.190,-11.973" fill="#ff6b6b" opacity="0.7"/>
    <polygon points="10.851,-13.343 11.331,-12.743 10.851,-12.143 10.371,-12.743" fill="#ff6b6b" opacity="0.7"/>
    <path d="M-0.025,-20.310 A0.720,0.720 0 1,0 -0.745,-21.030" fill="none" stroke="#ff6b6b" stroke-width="0.3"/>
    <polygon points="-0.745,-21.390 -0.445,-20.910 -1.045,-20.910" fill="#ff6b6b"/>
    <circle cx="0.545" cy="-40.966" r="0.36" fill="#ff6b6b" opacity="0.8"/>
    <circle cx="-2.544" cy="-40.868" r="0.36" fill="#ff6b6b" opacity="0.8"/>
    <circle cx="-9.281" cy="-3.276" r="0.36" fill="#ff6b6b" opacity="0.8"/>
    <circle cx="3.881" cy="3.302" r="0.36" fill="#ff6b6b" opacity="0.8"/>
    <polyline points="3.140,-35.367 2.420,-35.367 2.420,-34.647" fill="none" stroke="#ff6b6b" stroke-width="0.3"/>
    <polyline points="6.328,-32.741 5.608,-32.741 5.608,-32.021" fill="none" stroke="#ff6b6b" stroke-width="0.3"/>
    <path d="M3.581,-20.045 A0.720,0.720 0 1,0 2.861,-20.765" fill="none" stroke="#ff6b6b" stroke-width="0.3"/>
    <polygon points="2.861,-21.125 3.161,-20.645 2.561,-20.645" fill="#ff6b6b"/>
    <line x1="-2.519" y1="-35.887" x2="-2.294" y2="-33.883" stroke="#ff6b6b" stroke-width="0.2"/>
    <polygon points="-2.519,-35.887 -2.380,-35.598 -2.591,-35.575" fill="#ff6b6b"/>
    <polygon points="-2.294,-33.883 -2.222,-34.196 -2.433,-34.172" fill="#ff6b6b"/>
    <text x="-2.407" y="-35.685" fill="#ff6b6b" font-size="1.8" font-family="sans-serif" text-anchor="middle" font-weight="bold">2</text>
    <line x1="-14.125" y1="-21.869" x2="-11.510" y2="-21.786" stroke="#ff6b6b" stroke-width="0.2"/>
    <polygon points="-14.125,-21.869 -13.728,-21.994 -13.737,-21.719" fill="#ff6b6b"/>
    <polygon points="-11.510,-21.786 -11.898,-21.936 -11.907,-21.661" fill="#ff6b6b"/>
    <text x="-12.817" y="-22.628" fill="#ff6b6b" font-size="1.8" font-family="sans-serif" text-anchor="middle" font-weight="bold">2</text>
    <line x1="-3.379" y1="-2.355" x2="-3.029" y2="-4.327" stroke="#ff6b6b" stroke-width="0.2"/>
    <polygon points="-3.379,-2.355 -3.430,-2.669 -3.223,-2.632" fill="#ff6b6b"/>
    <polygon points="-3.029,-4.327 -3.185,-4.049 -2.978,-4.012" fill="#ff6b6b"/>
    <text x="-3.204" y="-4.141" fill="#ff6b6b" font-size="1.8" font-family="sans-serif" text-anchor="middle" font-weight="bold">2</text>
    <line x1="6.369" y1="-12.970" x2="4.331" y2="-13.020" stroke="#ff6b6b" stroke-width="0.2"/>
    <polygon points="6.369,-12.970 6.061,-12.870 6.066,-13.084" fill="#ff6b6b"/>
    <polygon points="4.331,-13.020 4.634,-12.906 4.639,-13.120" fill="#ff6b6b"/>
    <text x="5.350" y="-13.795" fill="#ff6b6b" font-size="1.8" font-family="sans-serif" text-anchor="middle" font-weight="bold">2</text>
    <line x1="-1.868" y1="-27.826" x2="0.681" y2="-27.752" stroke="#ff6b6b" stroke-width="0.2"/>
    <polygon points="-1.868,-27.826 -1.482,-27.949 -1.489,-27.681" fill="#ff6b6b"/>
    <polygon points="0.681,-27.752 0.302,-27.897 0.295,-27.630" fill="#ff6b6b"/>
    <text x="-0.594" y="-28.589" fill="#ff6b6b" font-size="1.8" font-family="sans-serif" text-anchor="middle" font-weight="bold">2</text>
    <line x1="-2.534" y1="-19.944" x2="11.869" y2="-19.781" stroke="#ff6b6b" stroke-width="0.2"/>
    <polygon points="-2.534,-19.944 -1.531,-20.283 -1.539,-19.583" fill="#ff6b6b"/>
    <polygon points="11.869,-19.781 10.873,-20.142 10.865,-19.442" fill="#ff6b6b"/>
    <text x="4.667" y="-20.662" fill="#ff6b6b" font-size="1.8" font-family="sans-serif" text-anchor="middle" font-weight="bold">-14</text>
    <line x1="-16.726" y1="-36.836" x2="-13.526" y2="-36.791" stroke="#ff6b6b" stroke-width="0.15" opacity="0.6"/>
    <line x1="-17.270" y1="1.282" x2="-14.071" y2="1.327" stroke="#ff6b6b" stroke-width="0.15" opacity="0.6"/>
    <line x1="-14.026" y1="-36.798" x2="-14.570" y2="1.320" stroke="#ff6b6b" stroke-width="0.2"/>
    <polygon points="-14.026,-36.798 -13.691,-35.793 -14.391,-35.803" fill="#ff6b6b"/>
    <polygon points="-14.570,1.320 -14.206,0.325 -14.906,0.315" fill="#ff6b6b"/>
    <text x="-14.298" y="-18.539" fill="#ff6b6b" font-size="1.8" font-family="sans-serif" text-anchor="middle" font-weight="bold">38</text>
    <polygon points="-13.224,-15.694 -12.744,-15.094 -13.224,-14.494 -13.704,-15.094" fill="#ff6b6b" opacity="0.7"/>
    <line x1="5.960" y1="-18.341" x2="5.977" y2="-15.141" stroke="#ff6b6b" stroke-width="0.15" opacity="0.6"/>
    <line x1="-13.479" y1="-18.234" x2="-13.462" y2="-15.034" stroke="#ff6b6b" stroke-width="0.15" opacity="0.6"/>
    <line x1="5.974" y1="-15.641" x2="-13.464" y2="-15.534" stroke="#ff6b6b" stroke-width="0.2"/>
    <polygon points="5.974,-15.641 4.976,-15.285 4.972,-15.985" fill="#ff6b6b"/>
    <polygon points="-13.464,-15.534 -12.462,-15.189 -12.466,-15.889" fill="#ff6b6b"/>
    <text x="-3.745" y="-16.387" fill="#ff6b6b" font-size="1.8" font-family="sans-serif" text-anchor="middle" font-weight="bold">21.5</text>
    <polyline points="2.383,-17.946 1.663,-17.946 1.663,-17.226" fill="none" stroke="#ff6b6b" stroke-width="0.3"/>
  </g>
  <g data-layer="status">
    <rect x="-14.5" y="-46.8" width="28.6" height="3" rx="0.5" fill="#ff6b6b" opacity="0.85"/>
    <text x="-13.7" y="-44.7" fill="#000000" font-size="1.8" font-family="sans-serif" font-weight="bold">OVER DOF=-4 err=4.7721</text>
  </g>
</svg>