<svg xmlns="http://www.w3.org/2000/svg" viewBox="-9.7 -958.2 417.9 1743.7" width="2508" height="10462">
  <rect x="-9.7" y="-958.2" width="417.9" height="1743.7" fill="#1a1a2e"/>
  <g data-layer="surfaces" opacity="0.25">
    <path d="M47.591,-38.679 L45.542,-37.014 L47.578,-35.922 L315.568,-52.942 L269.117,-88.032 L259.545,-188.112 L321.165,-249.474 L6.906,-256.332 L10.494,-56.890Z" fill="#4488cc" stroke="none"/>
    <path d="M315.568,-52.942 L331.718,-53.968 L336.966,-249.130 L321.165,-249.474 L259.545,-188.112 L269.117,-88.032Z" fill="#44cc88" stroke="none"/>
    <path d="M4.610,-59.779 L10.494,-56.890 L6.906,-256.332 L321.165,-249.474 L337.411,-265.653 L336.966,-249.130 L344.400,-248.967 L344.990,-270.144 L3.825,-273.067Z" fill="#cc8844" stroke="none"/>
    <path d="M344.884,-54.804 L375.375,-56.741 L380.548,-248.179 L363.367,-248.554 L362.592,-206.273 L358.186,-248.667 L351.662,-248.809Z" fill="#cc44aa" stroke="none"/>
    <path d="M47.843,-35.780 L34.255,-25.729 L338.367,-32.570 L338.976,-54.429 L331.718,-53.968 L331.369,-41.005 L315.568,-52.942 L47.578,-35.922Z" fill="#88cc44" stroke="none"/>
    <path d="M355.963,-270.050 L363.759,-269.983 L376.272,-953.170 L353.299,-295.671Z" fill="#44aacc" stroke="none"/>
    <path d="M344.112,-32.700 L383.809,-33.593 L384.941,-162.385 L382.169,-156.580 L383.189,-160.656 L384.957,-164.235 L385.884,-269.794 L363.759,-269.983 L363.367,-248.554 L380.548,-248.179 L375.375,-56.741 L344.884,-54.804Z" fill="#aa44cc" stroke="none"/>
    <path d="M344.112,-32.700 L338.367,-32.570 L315.698,780.557Z" fill="#cccc44" stroke="none"/>
    <path d="M331.718,-53.968 L338.976,-54.429 L344.400,-248.967 L336.966,-249.130Z" fill="#4488cc" stroke="none"/>
    <path d="M338.976,-54.429 L344.884,-54.804 L351.662,-248.809 L344.400,-248.967Z" fill="#44cc88" stroke="none"/>
    <path d="M43.913,-35.690 L45.542,-37.014 L10.514,-55.791 L10.518,-55.568 L10.514,-55.791 L4.613,-58.955 L1.479,-32.995Z" fill="#cc8844" stroke="none"/>
    <path d="M344.990,-270.144 L352.405,-270.080 L353.299,-295.671 L347.309,-353.303Z" fill="#cc44aa" stroke="none"/>
    <path d="M5.347,-4.346 L31.583,-25.669 L1.108,-24.983 L0.658,-14.828 L2.429,-2.187Z" fill="#88cc44" stroke="none"/>
    <path d="M31.583,-25.669 L43.913,-35.690 L1.479,-32.995 L1.455,-32.794 L1.108,-24.983Z" fill="#44aacc" stroke="none"/>
    <path d="M352.405,-270.080 L344.990,-270.144 L344.400,-248.967 L351.662,-248.809Z" fill="#aa44cc" stroke="none"/>
    <path d="M363.759,-269.983 L355.963,-270.050 L358.186,-248.667 L363.367,-248.554Z" fill="#cccc44" stroke="none"/>
    <path d="M321.165,-249.474 L336.966,-249.130 L337.411,-265.653Z" fill="#4488cc" stroke="none"/>
    <path d="M338.367,-32.570 L344.112,-32.700 L344.884,-54.804 L338.976,-54.429Z" fill="#44cc88" stroke="none"/>
    <path d="M363.367,-248.554 L358.186,-248.667 L362.592,-206.273Z" fill="#cc8844" stroke="none"/>
    <path d="M355.963,-270.050 L352.405,-270.080 L351.662,-248.809 L358.186,-248.667Z" fill="#cc44aa" stroke="none"/>
    <path d="M331.718,-53.968 L315.568,-52.942 L331.369,-41.005Z" fill="#88cc44" stroke="none"/>
    <path d="M45.542,-37.014 L47.591,-38.679 L10.494,-56.890 L10.514,-55.791Z" fill="#44aacc" stroke="none"/>
    <path d="M-2.697,1.605 L-0.079,-20.086 L-0.759,-24.941 L-4.711,-24.852Z" fill="#aa44cc" stroke="none"/>
    <path d="M352.405,-270.080 L355.963,-270.050 L353.299,-295.671Z" fill="#cccc44" stroke="none"/>
    <path d="M0.018,-0.404 L0.658,-14.828 L-0.079,-20.086 L-2.697,1.605Z" fill="#4488cc" stroke="none"/>
    <path d="M43.913,-35.690 L31.583,-25.669 L34.255,-25.729 L47.843,-35.780 L47.578,-35.922Z" fill="#44cc88" stroke="none"/>
    <path d="M4.610,-59.779 L2.694,-60.720 L1.464,-32.994 L1.479,-32.995 L4.613,-58.955Z" fill="#cc8844" stroke="none"/>
    <path d="M31.583,-25.669 L5.347,-4.346 L34.255,-25.729Z" fill="#cc44aa" stroke="none"/>
    <path d="M384.957,-164.235 L384.941,-162.385 L401.640,-197.367 L403.233,-201.231Z" fill="#88cc44" stroke="none"/>
    <path d="M1.455,-32.794 L1.464,-32.994 L-1.858,-32.783 L-0.759,-24.941 L0.510,-24.970Z" fill="#44aacc" stroke="none"/>
    <path d="M0.658,-14.828 L0.018,-0.404 L2.429,-2.187Z" fill="#aa44cc" stroke="none"/>
    <path d="M0.658,-14.828 L1.108,-24.983 L0.510,-24.970 L-0.079,-20.086Z" fill="#cccc44" stroke="none"/>
    <path d="M10.494,-56.890 L4.610,-59.779 L4.613,-58.955 L10.514,-55.791Z" fill="#4488cc" stroke="none"/>
    <path d="M384.941,-162.385 L384.957,-164.235 L383.189,-160.656 L382.169,-156.580Z" fill="#44cc88" stroke="none"/>
    <path d="M-0.079,-20.086 L0.510,-24.970 L-0.759,-24.941Z" fill="#cc8844" stroke="none"/>
    <path d="M1.108,-24.983 L1.455,-32.794 L0.510,-24.970Z" fill="#cc44aa" stroke="none"/>
    <path d="M45.542,-37.014 L43.913,-35.690 L47.578,-35.922Z" fill="#88cc44" stroke="none"/>
    <path d="M0.000,0.000 L5.347,-4.346 L2.429,-2.187 L2.448,-2.055 L2.429,-2.187 L0.018,-0.404Z" fill="#44aacc" stroke="none"/>
  </g>
  <g data-layer="surface-labels">
    <text x="142.466" y="-149.393" fill="#4488cc" font-size="3" font-family="sans-serif" text-anchor="middle" dominant-baseline="central" font-weight="bold" opacity="0.6">[0]</text>
    <text x="303.131" y="-149.632" fill="#44cc88" font-size="3" font-family="sans-serif" text-anchor="middle" dominant-baseline="central" font-weight="bold" opacity="0.6">[1]</text>
    <text x="157.027" y="-248.113" fill="#cc8844" font-size="3" font-family="sans-serif" text-anchor="middle" dominant-baseline="central" font-weight="bold" opacity="0.6">[2]</text>
    <text x="363.092" y="-149.681" fill="#cc44aa" font-size="3" font-family="sans-serif" text-anchor="middle" dominant-baseline="central" font-weight="bold" opacity="0.6">[3]</text>
    <text x="206.421" y="-37.643" fill="#88cc44" font-size="3" font-family="sans-serif" text-anchor="middle" dominant-baseline="central" font-weight="bold" opacity="0.6">[4]</text>
    <text x="364.267" y="-500.347" fill="#44aacc" font-size="3" font-family="sans-serif" text-anchor="middle" dominant-baseline="central" font-weight="bold" opacity="0.6">[5]</text>
    <text x="374.457" y="-131.435" fill="#aa44cc" font-size="3" font-family="sans-serif" text-anchor="middle" dominant-baseline="central" font-weight="bold" opacity="0.6">[6]</text>
    <text x="332.725" y="238.429" fill="#cccc44" font-size="3" font-family="sans-serif" text-anchor="middle" dominant-baseline="central" font-weight="bold" opacity="0.6">[7]</text>
    <text x="338.025" y="-152.048" fill="#4488cc" font-size="3" font-family="sans-serif" text-anchor="middle" dominant-baseline="central" font-weight="bold" opacity="0.6">[8]</text>
    <text x="345.085" y="-155.126" fill="#44cc88" font-size="3" font-family="sans-serif" text-anchor="middle" dominant-baseline="central" font-weight="bold" opacity="0.6">[9]</text>
    <text x="17.785" y="-42.648" fill="#cc8844" font-size="3" font-family="sans-serif" text-anchor="middle" dominant-baseline="central" font-weight="bold" opacity="0.6">[10]</text>
    <text x="348.925" y="-299.964" fill="#cc44aa" font-size="3" font-family="sans-serif" text-anchor="middle" dominant-baseline="central" font-weight="bold" opacity="0.6">[11]</text>
    <text x="11.381" y="-17.442" fill="#88cc44" font-size="3" font-family="sans-serif" text-anchor="middle" dominant-baseline="central" font-weight="bold" opacity="0.6">[12]</text>
    <text x="20.182" y="-30.082" fill="#44aacc" font-size="3" font-family="sans-serif" text-anchor="middle" dominant-baseline="central" font-weight="bold" opacity="0.6">[13]</text>
    <text x="348.368" y="-259.536" fill="#aa44cc" font-size="3" font-family="sans-serif" text-anchor="middle" dominant-baseline="central" font-weight="bold" opacity="0.6">[14]</text>
    <text x="360.290" y="-260.033" fill="#cccc44" font-size="3" font-family="sans-serif" text-anchor="middle" dominant-baseline="central" font-weight="bold" opacity="0.6">[15]</text>
    <text x="331.847" y="-254.752" fill="#4488cc" font-size="3" font-family="sans-serif" text-anchor="middle" dominant-baseline="central" font-weight="bold" opacity="0.6">[16]</text>
    <text x="341.592" y="-43.675" fill="#44cc88" font-size="3" font-family="sans-serif" text-anchor="middle" dominant-baseline="central" font-weight="bold" opacity="0.6">[17]</text>
    <text x="361.381" y="-234.498" fill="#cc8844" font-size="3" font-family="sans-serif" text-anchor="middle" dominant-baseline="central" font-weight="bold" opacity="0.6">[18]</text>
    <text x="354.591" y="-258.356" fill="#cc44aa" font-size="3" font-family="sans-serif" text-anchor="middle" dominant-baseline="central" font-weight="bold" opacity="0.6">[19]</text>
    <text x="326.218" y="-49.305" fill="#88cc44" font-size="3" font-family="sans-serif" text-anchor="middle" dominant-baseline="central" font-weight="bold" opacity="0.6">[20]</text>
    <text x="31.108" y="-45.779" fill="#44aacc" font-size="3" font-family="sans-serif" text-anchor="middle" dominant-baseline="central" font-weight="bold" opacity="0.6">[21]</text>
    <text x="-2.402" y="-15.733" fill="#aa44cc" font-size="3" font-family="sans-serif" text-anchor="middle" dominant-baseline="central" font-weight="bold" opacity="0.6">[22]</text>
    <text x="353.889" y="-278.600" fill="#cccc44" font-size="3" font-family="sans-serif" text-anchor="middle" dominant-baseline="central" font-weight="bold" opacity="0.6">[23]</text>
    <text x="-0.688" y="-7.429" fill="#4488cc" font-size="3" font-family="sans-serif" text-anchor="middle" dominant-baseline="central" font-weight="bold" opacity="0.6">[24]</text>
    <text x="39.870" y="-31.078" fill="#44cc88" font-size="3" font-family="sans-serif" text-anchor="middle" dominant-baseline="central" font-weight="bold" opacity="0.6">[25]</text>
    <text x="2.949" y="-51.071" fill="#cc8844" font-size="3" font-family="sans-serif" text-anchor="middle" dominant-baseline="central" font-weight="bold" opacity="0.6">[26]</text>
    <text x="23.729" y="-18.581" fill="#cc44aa" font-size="3" font-family="sans-serif" text-anchor="middle" dominant-baseline="central" font-weight="bold" opacity="0.6">[27]</text>
    <text x="392.208" y="-178.264" fill="#88cc44" font-size="3" font-family="sans-serif" text-anchor="middle" dominant-baseline="central" font-weight="bold" opacity="0.6">[28]</text>
    <text x="-0.160" y="-29.515" fill="#44aacc" font-size="3" font-family="sans-serif" text-anchor="middle" dominant-baseline="central" font-weight="bold" opacity="0.6">[29]</text>
    <text x="1.035" y="-5.806" fill="#aa44cc" font-size="3" font-family="sans-serif" text-anchor="middle" dominant-baseline="central" font-weight="bold" opacity="0.6">[30]</text>
    <text x="0.551" y="-20.737" fill="#cccc44" font-size="3" font-family="sans-serif" text-anchor="middle" dominant-baseline="central" font-weight="bold" opacity="0.6">[31]</text>
    <text x="7.694" y="-57.784" fill="#4488cc" font-size="3" font-family="sans-serif" text-anchor="middle" dominant-baseline="central" font-weight="bold" opacity="0.6">[32]</text>
    <text x="383.780" y="-160.828" fill="#44cc88" font-size="3" font-family="sans-serif" text-anchor="middle" dominant-baseline="central" font-weight="bold" opacity="0.6">[33]</text>
    <text x="-0.109" y="-23.332" fill="#cc8844" font-size="3" font-family="sans-serif" text-anchor="middle" dominant-baseline="central" font-weight="bold" opacity="0.6">[34]</text>
    <text x="1.025" y="-27.582" fill="#cc44aa" font-size="3" font-family="sans-serif" text-anchor="middle" dominant-baseline="central" font-weight="bold" opacity="0.6">[35]</text>
    <text x="45.678" y="-36.208" fill="#88cc44" font-size="3" font-family="sans-serif" text-anchor="middle" dominant-baseline="central" font-weight="bold" opacity="0.6">[36]</text>
    <text x="1.788" y="-1.583" fill="#44aacc" font-size="3" font-family="sans-serif" text-anchor="middle" dominant-baseline="central" font-weight="bold" opacity="0.6">[37]</text>
  </g>
  <g data-layer="edges">
    <line x1="0.000" y1="0.000" x2="47.591" y2="-38.679" stroke="#e8e8e8" stroke-width="0.4"/>
    <line x1="47.591" y1="-38.679" x2="2.694" y2="-60.720" stroke="#e8e8e8" stroke-width="0.4"/>
    <line x1="2.694" y1="-60.720" x2="0.000" y2="0.000" stroke="#e8e8e8" stroke-width="0.4"/>
    <line x1="-2.697" y1="1.605" x2="47.843" y2="-35.780" stroke="#e8e8e8" stroke-width="0.4"/>
    <line x1="47.843" y1="-35.780" x2="4.613" y2="-58.955" stroke="#e8e8e8" stroke-width="0.4"/>
    <line x1="4.613" y1="-58.955" x2="-2.697" y2="1.605" stroke="#e8e8e8" stroke-width="0.4"/>
    <line x1="-2.697" y1="1.605" x2="-4.711" y2="-24.852" stroke="#e8e8e8" stroke-width="0.4"/>
    <line x1="-4.711" y1="-24.852" x2="383.809" y2="-33.593" stroke="#e8e8e8" stroke-width="0.4"/>
    <line x1="383.809" y1="-33.593" x2="385.884" y2="-269.794" stroke="#e8e8e8" stroke-width="0.4"/>
    <line x1="385.884" y1="-269.794" x2="3.825" y2="-273.067" stroke="#e8e8e8" stroke-width="0.4"/>
    <line x1="3.825" y1="-273.067" x2="4.613" y2="-58.955" stroke="#e8e8e8" stroke-width="0.4"/>
    <line x1="2.448" y1="-2.055" x2="-1.858" y2="-32.783" stroke="#e8e8e8" stroke-width="0.4"/>
    <line x1="-1.858" y1="-32.783" x2="375.375" y2="-56.741" stroke="#e8e8e8" stroke-width="0.4"/>
    <line x1="375.375" y1="-56.741" x2="380.548" y2="-248.179" stroke="#e8e8e8" stroke-width="0.4"/>
    <line x1="380.548" y1="-248.179" x2="6.906" y2="-256.332" stroke="#e8e8e8" stroke-width="0.4"/>
    <line x1="6.906" y1="-256.332" x2="10.518" y2="-55.568" stroke="#e8e8e8" stroke-width="0.4"/>
    <line x1="383.189" y1="-160.656" x2="382.169" y2="-156.580" stroke="#e8e8e8" stroke-width="0.4"/>
    <line x1="382.169" y1="-156.580" x2="401.640" y2="-197.367" stroke="#e8e8e8" stroke-width="0.4"/>
    <line x1="401.640" y1="-197.367" x2="403.233" y2="-201.231" stroke="#e8e8e8" stroke-width="0.4"/>
    <line x1="403.233" y1="-201.231" x2="383.189" y2="-160.656" stroke="#e8e8e8" stroke-width="0.4"/>
    <line x1="337.411" y1="-265.653" x2="259.545" y2="-188.112" stroke="#e8e8e8" stroke-width="0.4"/>
    <line x1="259.545" y1="-188.112" x2="269.117" y2="-88.032" stroke="#e8e8e8" stroke-width="0.4"/>
    <line x1="269.117" y1="-88.032" x2="331.369" y2="-41.005" stroke="#e8e8e8" stroke-width="0.4"/>
    <line x1="331.369" y1="-41.005" x2="337.411" y2="-265.653" stroke="#e8e8e8" stroke-width="0.4"/>
    <line x1="362.592" y1="-206.273" x2="347.309" y2="-353.303" stroke="#e8e8e8" stroke-width="0.4"/>
    <line x1="347.309" y1="-353.303" x2="315.698" y2="780.557" stroke="#e8e8e8" stroke-width="0.4"/>
    <line x1="315.698" y1="780.557" x2="376.272" y2="-953.170" stroke="#e8e8e8" stroke-width="0.4"/>
    <line x1="376.272" y1="-953.170" x2="362.592" y2="-206.273" stroke="#e8e8e8" stroke-width="0.4"/>
    <line x1="139.579" y1="-57.252" x2="220.158" y2="-106.372" stroke="#e8e8e8" stroke-width="0.4"/>
    <circle cx="0.000" cy="0.000" r="0.6" fill="#e8e8e8"/>
    <circle cx="47.591" cy="-38.679" r="0.6" fill="#e8e8e8"/>
    <circle cx="2.694" cy="-60.720" r="0.6" fill="#e8e8e8"/>
    <circle cx="-2.697" cy="1.605" r="0.6" fill="#e8e8e8"/>
    <circle cx="47.843" cy="-35.780" r="0.6" fill="#e8e8e8"/>
    <circle cx="4.613" cy="-58.955" r="0.6" fill="#e8e8e8"/>
    <circle cx="139.579" cy="-57.252" r="0.6" fill="#e8e8e8"/>
    <circle cx="-4.711" cy="-24.852" r="0.6" fill="#e8e8e8"/>
    <circle cx="383.809" cy="-33.593" r="0.6" fill="#e8e8e8"/>
    <circle cx="385.884" cy="-269.794" r="0.6" fill="#e8e8e8"/>
    <circle cx="3.825" cy="-273.067" r="0.6" fill="#e8e8e8"/>
    <circle cx="2.448" cy="-2.055" r="0.6" fill="#e8e8e8"/>
    <circle cx="10.518" cy="-55.568" r="0.6" fill="#e8e8e8"/>
    <circle cx="-1.858" cy="-32.783" r="0.6" fill="#e8e8e8"/>
    <circle cx="375.375" cy="-56.741" r="0.6" fill="#e8e8e8"/>
    <circle cx="380.548" cy="-248.179" r="0.6" fill="#e8e8e8"/>
    <circle cx="6.906" cy="-256.332" r="0.6" fill="#e8e8e8"/>
    <circle cx="383.189" cy="-160.656" r="0.6" fill="#e8e8e8"/>
    <circle cx="381.297" cy="-156.450" r="0.6" fill="#e8e8e8"/>
    <circle cx="382.169" cy="-156.580" r="0.6" fill="#e8e8e8"/>
    <circle cx="401.640" cy="-197.367" r="0.6" fill="#e8e8e8"/>
    <circle cx="403.233" cy="-201.231" r="0.6" fill="#e8e8e8"/>
    <circle cx="337.411" cy="-265.653" r="0.6" fill="#e8e8e8"/>
    <circle cx="259.545" cy="-188.112" r="0.6" fill="#e8e8e8"/>
    <circle cx="269.117" cy="-88.032" r="0.6" fill="#e8e8e8"/>
    <circle cx="331.369" cy="-41.005" r="0.6" fill="#e8e8e8"/>
    <circle cx="362.592" cy="-206.273" r="0.6" fill="#e8e8e8"/>
    <circle cx="347.309" cy="-353.303" r="0.6" fill="#e8e8e8"/>
    <circle cx="315.698" cy="780.557" r="0.6" fill="#e8e8e8"/>
    <circle cx="376.272" cy="-953.170" r="0.6" fill="#e8e8e8"/>
    <circle cx="220.158" cy="-106.372" r="0.6" fill="#e8e8e8"/>
  </g>
  <g data-layer="construction">
  </g>
  <g data-layer="annotations">
    <line x1="2.428" y1="-6.198" x2="4.828" y2="-6.198" stroke="#ff6b6b" stroke-width="0.3"/>
    <line x1="2.788" y1="-6.198" x2="2.428" y2="-5.598" stroke="#ff6b6b" stroke-width="0.2"/>
    <line x1="3.388" y1="-6.198" x2="3.028" y2="-5.598" stroke="#ff6b6b" stroke-width="0.2"/>
    <line x1="3.988" y1="-6.198" x2="3.628" y2="-5.598" stroke="#ff6b6b" stroke-width="0.2"/>
    <line x1="4.588" y1="-6.198" x2="4.228" y2="-5.598" stroke="#ff6b6b" stroke-width="0.2"/>
    <line x1="22.943" y1="-33.456" x2="24.143" y2="-33.456" stroke="#ff6b6b" stroke-width="0.3" transform="rotate(-39.1 23.543 -33.216)"/>
    <line x1="22.943" y1="-32.976" x2="24.143" y2="-32.976" stroke="#ff6b6b" stroke-width="0.3" transform="rotate(-39.1 23.543 -33.216)"/>
    <line x1="24.860" y1="-58.795" x2="26.060" y2="-58.795" stroke="#ff6b6b" stroke-width="0.3" transform="rotate(-153.9 25.460 -58.555)"/>
    <line x1="24.860" y1="-58.315" x2="26.060" y2="-58.315" stroke="#ff6b6b" stroke-width="0.3" transform="rotate(-153.9 25.460 -58.555)"/>
    <line x1="13.293" y1="-22.346" x2="14.493" y2="-22.346" stroke="#ff6b6b" stroke-width="0.3" transform="rotate(-39.1 13.893 -22.106)"/>
    <line x1="13.293" y1="-21.866" x2="14.493" y2="-21.866" stroke="#ff6b6b" stroke-width="0.3" transform="rotate(-39.1 13.893 -22.106)"/>
    <line x1="-4.266" y1="-30.905" x2="-3.066" y2="-30.905" stroke="#ff6b6b" stroke-width="0.3" transform="rotate(92.5 -3.666 -30.665)"/>
    <line x1="-4.266" y1="-30.425" x2="-3.066" y2="-30.425" stroke="#ff6b6b" stroke-width="0.3" transform="rotate(92.5 -3.666 -30.665)"/>
    <path d="M17.206,-36.806 A0.720,0.720 0 1,0 16.486,-37.526" fill="none" stroke="#ff6b6b" stroke-width="0.3"/>
    <polygon points="16.486,-37.886 16.786,-37.406 16.186,-37.406" fill="#ff6b6b"/>
    <line x1="19.874" y1="-30.272" x2="21.074" y2="-30.272" stroke="#ff6b6b" stroke-width="0.3" transform="rotate(-36.5 20.474 -30.032)"/>
    <line x1="19.874" y1="-29.792" x2="21.074" y2="-29.792" stroke="#ff6b6b" stroke-width="0.3" transform="rotate(-36.5 20.474 -30.032)"/>
    <line x1="23.896" y1="-55.496" x2="25.096" y2="-55.496" stroke="#ff6b6b" stroke-width="0.3" transform="rotate(-151.8 24.496 -55.256)"/>
    <line x1="23.896" y1="-55.016" x2="25.096" y2="-55.016" stroke="#ff6b6b" stroke-width="0.3" transform="rotate(-151.8 24.496 -55.256)"/>
    <line x1="10.166" y1="-21.239" x2="11.366" y2="-21.239" stroke="#ff6b6b" stroke-width="0.3" transform="rotate(-36.5 10.766 -20.999)"/>
    <line x1="10.166" y1="-20.759" x2="11.366" y2="-20.759" stroke="#ff6b6b" stroke-width="0.3" transform="rotate(-36.5 10.766 -20.999)"/>
    <line x1="-6.687" y1="-30.055" x2="-5.487" y2="-30.055" stroke="#ff6b6b" stroke-width="0.3" transform="rotate(96.9 -6.087 -29.815)"/>
    <line x1="-6.687" y1="-29.575" x2="-5.487" y2="-29.575" stroke="#ff6b6b" stroke-width="0.3" transform="rotate(96.9 -6.087 -29.815)"/>
    <path d="M17.469,-29.976 A0.720,0.720 0 1,0 16.749,-30.696" fill="none" stroke="#ff6b6b" stroke-width="0.3"/>
    <polygon points="16.749,-31.056 17.049,-30.576 16.449,-30.576" fill="#ff6b6b"/>
    <line x1="-0.189" y1="-0.233" x2="-2.207" y2="-2.716" stroke="#ff6b6b" stroke-width="0.15" opacity="0.6"/>
    <line x1="47.402" y1="-38.912" x2="45.384" y2="-41.395" stroke="#ff6b6b" stroke-width="0.15" opacity="0.6"/>
    <line x1="-1.892" y1="-2.328" x2="45.699" y2="-41.007" stroke="#ff6b6b" stroke-width="0.2"/>
    <polygon points="-1.892,-2.328 -1.337,-3.230 -0.895,-2.687" fill="#ff6b6b"/>
    <polygon points="45.699,-41.007 44.702,-40.648 45.144,-40.105" fill="#ff6b6b"/>
    <text x="21.904" y="-22.468" fill="#ff6b6b" font-size="1.8" font-family="sans-serif" text-anchor="middle" font-weight="bold">22</text>
    <line x1="23.796" y1="-19.340" x2="22.573" y2="-17.088" stroke="#ff6b6b" stroke-width="0.2"/>
    <polygon points="23.796,-19.340 23.730,-18.938 23.494,-19.066" fill="#ff6b6b"/>
    <polygon points="22.573,-17.088 22.875,-17.361 22.638,-17.490" fill="#ff6b6b"/>
    <text x="23.184" y="-19.014" fill="#ff6b6b" font-size="1.8" font-family="sans-serif" text-anchor="middle" font-weight="bold">-2</text>
    <text x="26.660" y="-29.975" fill="#ff6b6b" font-size="2" font-family="sans-serif" text-anchor="middle">⊕</text>
    <path d="M4.000,0.000 A4.000,4.000 0 0,0 2.779,-2.877" fill="none" stroke="#ff6b6b" stroke-width="0.3"/>
    <text x="4.787" y="-2.032" fill="#ff6b6b" font-size="1.6" font-family="sans-serif" text-anchor="middle" dominant-baseline="central">46°</text>
    <circle cx="82.607" cy="-53.492" r="0.36" fill="#ff6b6b" opacity="0.8"/>
    <line x1="139.579" y1="-57.252" x2="112.078" y2="-91.090" stroke="#ff6b6b" stroke-width="0.2"/>
    <polygon points="139.579,-57.252 138.677,-57.807 139.220,-58.249" fill="#ff6b6b"/>
    <polygon points="112.078,-91.090 112.437,-90.093 112.981,-90.534" fill="#ff6b6b"/>
    <text x="125.829" y="-74.971" fill="#ff6b6b" font-size="1.8" font-family="sans-serif" text-anchor="middle" font-weight="bold">8.42</text>
    <path d="M155.209,-121.642 A0.720,0.720 0 1,0 154.489,-122.362" fill="none" stroke="#ff6b6b" stroke-width="0.3"/>
    <polygon points="154.489,-122.722 154.789,-122.242 154.189,-122.242" fill="#ff6b6b"/>
    <path d="M1.303,1.605 A4.000,4.000 0 0,1 -2.697,5.605" fill="none" stroke="#ff6b6b" stroke-width="0.3"/>
    <text x="0.980" y="5.282" fill="#ff6b6b" font-size="1.6" font-family="sans-serif" text-anchor="middle" dominant-baseline="central">-90°</text>
    <path d="M-0.711,-24.852 A4.000,4.000 0 0,1 -0.711,-24.852" fill="none" stroke="#ff6b6b" stroke-width="0.3"/>
    <text x="0.489" y="-24.852" fill="#ff6b6b" font-size="1.6" font-family="sans-serif" text-anchor="middle" dominant-baseline="central">0°</text>
    <path d="M387.809,-33.593 A4.000,4.000 0 0,0 383.809,-37.593" fill="none" stroke="#ff6b6b" stroke-width="0.3"/>
    <text x="387.486" y="-37.270" fill="#ff6b6b" font-size="1.6" font-family="sans-serif" text-anchor="middle" dominant-baseline="central">90°</text>
    <path d="M389.884,-269.794 A4.000,4.000 0 0,0 381.884,-269.794" fill="none" stroke="#ff6b6b" stroke-width="0.3"/>
    <text x="385.884" y="-274.994" fill="#ff6b6b" font-size="1.6" font-family="sans-serif" text-anchor="middle" dominant-baseline="central">180°</text>
    <path d="M7.825,-273.067 A4.000,4.000 0 0,1 3.825,-269.067" fill="none" stroke="#ff6b6b" stroke-width="0.3"/>
    <text x="7.502" y="-269.390" fill="#ff6b6b" font-size="1.6" font-family="sans-serif" text-anchor="middle" dominant-baseline="central">-90°</text>
    <circle cx="14.585" cy="-6.490" r="0.36" fill="#ff6b6b" opacity="0.8"/>
    <circle cx="16.680" cy="-48.590" r="0.36" fill="#ff6b6b" opacity="0.8"/>
    <path d="M152.136,-117.516 A0.720,0.720 0 1,0 151.416,-118.236" fill="none" stroke="#ff6b6b" stroke-width="0.3"/>
    <polygon points="151.416,-118.596 151.716,-118.116 151.116,-118.116" fill="#ff6b6b"/>
    <line x1="-3.704" y1="-11.624" x2="0.295" y2="-17.419" stroke="#ff6b6b" stroke-width="0.2"/>
    <polygon points="-3.704,-11.624 -3.424,-12.646 -2.848,-12.248" fill="#ff6b6b"/>
    <polygon points="0.295,-17.419 -0.561,-16.794 0.015,-16.397" fill="#ff6b6b"/>
    <text x="-1.705" y="-15.321" fill="#ff6b6b" font-size="1.8" font-family="sans-serif" text-anchor="middle" font-weight="bold">5</text>
    <line x1="189.549" y1="-29.222" x2="186.758" y2="-44.762" stroke="#ff6b6b" stroke-width="0.2"/>
    <polygon points="189.549,-29.222 189.028,-30.145 189.717,-30.269" fill="#ff6b6b"/>
    <polygon points="186.758,-44.762 186.591,-43.715 187.280,-43.839" fill="#ff6b6b"/>
    <text x="188.154" y="-37.792" fill="#ff6b6b" font-size="1.8" font-family="sans-serif" text-anchor="middle" font-weight="bold">5</text>
    <line x1="384.847" y1="-151.693" x2="377.962" y2="-152.460" stroke="#ff6b6b" stroke-width="0.2"/>
    <polygon points="384.847,-151.693 383.814,-151.456 383.891,-152.152" fill="#ff6b6b"/>
    <polygon points="377.962,-152.460 378.917,-152.001 378.994,-152.697" fill="#ff6b6b"/>
    <text x="381.404" y="-152.876" fill="#ff6b6b" font-size="1.8" font-family="sans-serif" text-anchor="middle" font-weight="bold">5</text>
    <line x1="194.855" y1="-271.430" x2="193.727" y2="-252.255" stroke="#ff6b6b" stroke-width="0.2"/>
    <polygon points="194.855,-271.430 195.145,-270.411 194.446,-270.452" fill="#ff6b6b"/>
    <polygon points="193.727,-252.255 194.135,-253.233 193.436,-253.274" fill="#ff6b6b"/>
    <text x="194.291" y="-262.643" fill="#ff6b6b" font-size="1.8" font-family="sans-serif" text-anchor="middle" font-weight="bold">5</text>
    <line x1="4.219" y1="-166.011" x2="8.712" y2="-155.950" stroke="#ff6b6b" stroke-width="0.2"/>
    <polygon points="4.219,-166.011 4.946,-165.241 4.307,-164.955" fill="#ff6b6b"/>
    <polygon points="8.712,-155.950 8.624,-157.006 7.985,-156.720" fill="#ff6b6b"/>
    <text x="6.465" y="-161.780" fill="#ff6b6b" font-size="1.8" font-family="sans-serif" text-anchor="middle" font-weight="bold">5</text>
    <path d="M390.876,-183.129 A0.720,0.720 0 1,0 390.156,-183.849" fill="none" stroke="#ff6b6b" stroke-width="0.3"/>
    <polygon points="390.156,-184.209 390.456,-183.729 389.856,-183.729" fill="#ff6b6b"/>
    <line x1="393.823" y1="-174.360" x2="394.543" y2="-173.760" stroke="#ff6b6b" stroke-width="0.3" transform="rotate(104.0 394.183 -173.760)"/>
    <line x1="394.543" y1="-173.760" x2="393.823" y2="-173.160" stroke="#ff6b6b" stroke-width="0.3" transform="rotate(104.0 394.183 -173.760)"/>
    <line x1="394.303" y1="-174.360" x2="395.023" y2="-173.760" stroke="#ff6b6b" stroke-width="0.3" transform="rotate(104.0 394.183 -173.760)"/>
    <line x1="395.023" y1="-173.760" x2="394.303" y2="-173.160" stroke="#ff6b6b" stroke-width="0.3" transform="rotate(104.0 394.183 -173.760)"/>
    <line x1="407.896" y1="-216.912" x2="408.616" y2="-216.312" stroke="#ff6b6b" stroke-width="0.3" transform="rotate(-67.6 408.256 -216.312)"/>
    <line x1="408.616" y1="-216.312" x2="407.896" y2="-215.712" stroke="#ff6b6b" stroke-width="0.3" transform="rotate(-67.6 408.256 -216.312)"/>
    <line x1="408.376" y1="-216.912" x2="409.096" y2="-216.312" stroke="#ff6b6b" stroke-width="0.3" transform="rotate(-67.6 408.256 -216.312)"/>
    <line x1="409.096" y1="-216.312" x2="408.376" y2="-215.712" stroke="#ff6b6b" stroke-width="0.3" transform="rotate(-67.6 408.256 -216.312)"/>
    <line x1="388.443" y1="-179.490" x2="389.163" y2="-178.890" stroke="#ff6b6b" stroke-width="0.3" transform="rotate(-64.5 388.803 -178.890)"/>
    <line x1="389.163" y1="-178.890" x2="388.443" y2="-178.290" stroke="#ff6b6b" stroke-width="0.3" transform="rotate(-64.5 388.803 -178.890)"/>
    <line x1="388.923" y1="-179.490" x2="389.643" y2="-178.890" stroke="#ff6b6b" stroke-width="0.3" transform="rotate(-64.5 388.803 -178.890)"/>
    <line x1="389.643" y1="-178.890" x2="388.923" y2="-178.290" stroke="#ff6b6b" stroke-width="0.3" transform="rotate(-64.5 388.803 -178.890)"/>
    <line x1="395.146" y1="-180.839" x2="395.866" y2="-180.239" stroke="#ff6b6b" stroke-width="0.3" transform="rotate(116.3 395.506 -180.239)"/>
    <line x1="395.866" y1="-180.239" x2="395.146" y2="-179.639" stroke="#ff6b6b" stroke-width="0.3" transform="rotate(116.3 395.506 -180.239)"/>
    <line x1="395.626" y1="-180.839" x2="396.346" y2="-180.239" stroke="#ff6b6b" stroke-width="0.3" transform="rotate(116.3 395.506 -180.239)"/>
    <line x1="396.346" y1="-180.239" x2="395.626" y2="-179.639" stroke="#ff6b6b" stroke-width="0.3" transform="rotate(116.3 395.506 -180.239)"/>
    <line x1="383.480" y1="-160.583" x2="386.584" y2="-159.807" stroke="#ff6b6b" stroke-width="0.15" opacity="0.6"/>
    <line x1="382.460" y1="-156.507" x2="385.565" y2="-155.731" stroke="#ff6b6b" stroke-width="0.15" opacity="0.6"/>
    <line x1="386.099" y1="-159.928" x2="385.080" y2="-155.852" stroke="#ff6b6b" stroke-width="0.2"/>
    <polygon points="386.099,-159.928 386.160,-159.263 385.732,-159.370" fill="#ff6b6b"/>
    <polygon points="385.080,-155.852 385.447,-156.410 385.019,-156.517" fill="#ff6b6b"/>
    <text x="385.589" y="-158.690" fill="#ff6b6b" font-size="1.8" font-family="sans-serif" text-anchor="middle" font-weight="bold">4</text>
    <polyline points="391.346,-165.991 390.626,-165.991 390.626,-165.271" fill="none" stroke="#ff6b6b" stroke-width="0.3" transform="rotate(-76.0 390.626 -165.991)"/>
    <line x1="382.679" y1="-158.618" x2="377.962" y2="-152.460" stroke="#ff6b6b" stroke-width="0.2"/>
    <polygon points="382.679,-158.618 382.349,-157.611 381.793,-158.037" fill="#ff6b6b"/>
    <polygon points="377.962,-152.460 378.848,-153.041 378.292,-153.466" fill="#ff6b6b"/>
    <text x="380.320" y="-156.339" fill="#ff6b6b" font-size="1.8" font-family="sans-serif" text-anchor="middle" font-weight="bold">0</text>
    <line x1="402.436" y1="-199.299" x2="384.847" y2="-151.693" stroke="#ff6b6b" stroke-width="0.2"/>
    <polygon points="402.436,-199.299 402.418,-198.240 401.761,-198.482" fill="#ff6b6b"/>
    <polygon points="384.847,-151.693 385.521,-152.510 384.865,-152.752" fill="#ff6b6b"/>
    <text x="393.641" y="-176.296" fill="#ff6b6b" font-size="1.8" font-family="sans-serif" text-anchor="middle" font-weight="bold">0</text>
    <polygon points="379.720,-159.329 380.200,-158.729 379.720,-158.129 379.240,-158.729" fill="#ff6b6b" opacity="0.7"/>
    <polygon points="375.373,-153.559 375.853,-152.959 375.373,-152.359 374.893,-152.959" fill="#ff6b6b" opacity="0.7"/>
    <path d="M300.080,-145.701 A0.720,0.720 0 1,0 299.360,-146.421" fill="none" stroke="#ff6b6b" stroke-width="0.3"/>
    <polygon points="299.360,-146.781 299.660,-146.301 299.060,-146.301" fill="#ff6b6b"/>
    <circle cx="265.814" cy="-258.977" r="0.36" fill="#ff6b6b" opacity="0.8"/>
    <circle cx="226.813" cy="-220.012" r="0.36" fill="#ff6b6b" opacity="0.8"/>
    <circle cx="228.156" cy="-66.512" r="0.36" fill="#ff6b6b" opacity="0.8"/>
    <circle cx="259.310" cy="-42.877" r="0.36" fill="#ff6b6b" opacity="0.8"/>
    <polyline points="229.618,-195.372 228.898,-195.372 228.898,-194.652" fill="none" stroke="#ff6b6b" stroke-width="0.3"/>
    <polyline points="264.569,-202.922 263.849,-202.922 263.849,-202.202" fill="none" stroke="#ff6b6b" stroke-width="0.3"/>
    <path d="M353.739,-185.097 A0.720,0.720 0 1,0 353.019,-185.817" fill="none" stroke="#ff6b6b" stroke-width="0.3"/>
    <polygon points="353.019,-186.177 353.319,-185.697 352.719,-185.697" fill="#ff6b6b"/>
    <line x1="298.478" y1="-226.882" x2="354.951" y2="-279.788" stroke="#ff6b6b" stroke-width="0.2"/>
    <polygon points="298.478,-226.882 298.968,-227.822 299.447,-227.311" fill="#ff6b6b"/>
    <polygon points="354.951,-279.788 353.981,-279.360 354.460,-278.849" fill="#ff6b6b"/>
    <text x="326.714" y="-254.135" fill="#ff6b6b" font-size="1.8" font-family="sans-serif" text-anchor="middle" font-weight="bold">2</text>
    <line x1="264.331" y1="-138.072" x2="331.503" y2="213.627" stroke="#ff6b6b" stroke-width="0.2"/>
    <polygon points="264.331,-138.072 264.862,-137.156 264.175,-137.024" fill="#ff6b6b"/>
    <polygon points="331.503,213.627 331.659,212.579 330.972,212.710" fill="#ff6b6b"/>
    <text x="297.917" y="36.977" fill="#ff6b6b" font-size="1.8" font-family="sans-serif" text-anchor="middle" font-weight="bold">2</text>
    <line x1="300.243" y1="-64.519" x2="345.985" y2="-86.306" stroke="#ff6b6b" stroke-width="0.2"/>
    <polygon points="300.243,-64.519 300.995,-65.265 301.296,-64.633" fill="#ff6b6b"/>
    <polygon points="345.985,-86.306 344.931,-86.192 345.232,-85.560" fill="#ff6b6b"/>
    <text x="323.114" y="-76.213" fill="#ff6b6b" font-size="1.8" font-family="sans-serif" text-anchor="middle" font-weight="bold">2</text>
    <line x1="334.390" y1="-153.329" x2="369.432" y2="-579.722" stroke="#ff6b6b" stroke-width="0.2"/>
    <polygon points="334.390,-153.329 334.123,-154.354 334.821,-154.297" fill="#ff6b6b"/>
    <polygon points="369.432,-579.722 369.001,-578.754 369.699,-578.696" fill="#ff6b6b"/>
    <text x="351.911" y="-367.325" fill="#ff6b6b" font-size="1.8" font-family="sans-serif" text-anchor="middle" font-weight="bold">2</text>
    <line x1="331.503" y1="213.627" x2="369.432" y2="-579.722" stroke="#ff6b6b" stroke-width="0.2"/>
    <polygon points="331.503,213.627 331.201,212.611 331.901,212.645" fill="#ff6b6b"/>
    <polygon points="369.432,-579.722 369.035,-578.739 369.734,-578.706" fill="#ff6b6b"/>
    <text x="350.468" y="-183.847" fill="#ff6b6b" font-size="1.8" font-family="sans-serif" text-anchor="middle" font-weight="bold">2</text>
    <line x1="369.432" y1="-579.722" x2="377.962" y2="-152.460" stroke="#ff6b6b" stroke-width="0.2"/>
    <polygon points="369.432,-579.722 369.802,-578.729 369.102,-578.715" fill="#ff6b6b"/>
    <polygon points="377.962,-152.460 378.292,-153.466 377.592,-153.452" fill="#ff6b6b"/>
    <text x="373.697" y="-366.891" fill="#ff6b6b" font-size="1.8" font-family="sans-serif" text-anchor="middle" font-weight="bold">-14</text>
    <line x1="259.844" y1="-188.141" x2="263.029" y2="-188.446" stroke="#ff6b6b" stroke-width="0.15" opacity="0.6"/>
    <line x1="269.416" y1="-88.061" x2="272.601" y2="-88.366" stroke="#ff6b6b" stroke-width="0.15" opacity="0.6"/>
    <line x1="262.532" y1="-188.398" x2="272.103" y2="-88.318" stroke="#ff6b6b" stroke-width="0.2"/>
    <polygon points="262.532,-188.398 262.975,-187.436 262.278,-187.369" fill="#ff6b6b"/>
    <polygon points="272.103,-88.318 272.357,-89.347 271.660,-89.280" fill="#ff6b6b"/>
    <text x="267.317" y="-139.158" fill="#ff6b6b" font-size="1.8" font-family="sans-serif" text-anchor="middle" font-weight="bold">38</text>
    <polygon points="242.464,-122.934 242.944,-122.334 242.464,-121.734 241.984,-122.334" fill="#ff6b6b" opacity="0.7"/>
    <line x1="139.423" y1="-57.508" x2="137.758" y2="-60.241" stroke="#ff6b6b" stroke-width="0.15" opacity="0.6"/>
    <line x1="220.002" y1="-106.628" x2="218.337" y2="-109.361" stroke="#ff6b6b" stroke-width="0.15" opacity="0.6"/>
    <line x1="138.018" y1="-59.814" x2="218.597" y2="-108.934" stroke="#ff6b6b" stroke-width="0.2"/>
    <polygon points="138.018,-59.814 138.690,-60.633 139.054,-60.035" fill="#ff6b6b"/>
    <polygon points="218.597,-108.934 217.561,-108.712 217.925,-108.114" fill="#ff6b6b"/>
    <text x="178.307" y="-85.174" fill="#ff6b6b" font-size="1.8" font-family="sans-serif" text-anchor="middle" font-weight="bold">21.5</text>
    <polyline points="222.691,-110.694 221.971,-110.694 221.971,-109.974" fill="none" stroke="#ff6b6b" stroke-width="0.3"/>
  </g>
  <g data-layer="status">
    <rect x="-8.7" y="-957.2" width="29.9" height="3" rx="0.5" fill="#ff6b6b" opacity="0.85"/>
    <text x="-7.9" y="-955.1" fill="#000000" font-size="1.8" font-family="sans-serif" font-weight="bold">OVER DOF=-4 err=93.8443</text>
  </g>
</svg>