<svg xmlns="http://www.w3.org/2000/svg" viewBox="-7.1372 -13.0935 58.1059 201.5725">
  <g transform="translate(0, 175.3855) scale(1, -1)">
    <line x1="0" y1="0" x2="9.6477" y2="12.2722" stroke="black" stroke-width="0.5"/>
    <line x1="9.6477" y1="12.2722" x2="-5.1372" y2="-5.9955" stroke="black" stroke-width="0.5"/>
    <line x1="-5.1372" y1="-5.9955" x2="0" y2="0" stroke="black" stroke-width="0.5"/>
    <line x1="2.6238" y1="2.5364" x2="1.6356" y2="-2.0038" stroke="black" stroke-width="0.5"/>
    <line x1="1.6356" y1="-2.0038" x2="1.3281" y2="5.6932" stroke="black" stroke-width="0.5"/>
    <line x1="1.3281" y1="5.6932" x2="2.6238" y2="2.5364" stroke="black" stroke-width="0.5"/>
    <line x1="2.6238" y1="2.5364" x2="1.6604" y2="-11.0935" stroke="black" stroke-width="0.5"/>
    <line x1="1.6604" y1="-11.0935" x2="48.9686" y2="-9.582" stroke="black" stroke-width="0.5"/>
    <line x1="48.9686" y1="-9.582" x2="47.1504" y2="31.3817" stroke="black" stroke-width="0.5"/>
    <line x1="47.1504" y1="31.3817" x2="1.7006" y2="33.8344" stroke="black" stroke-width="0.5"/>
    <line x1="1.7006" y1="33.8344" x2="1.3281" y2="5.6932" stroke="black" stroke-width="0.5"/>
    <line x1="5.576" y1="2.4094" x2="6.2994" y2="-7.1793" stroke="black" stroke-width="0.5"/>
    <line x1="6.2994" y1="-7.1793" x2="43.0634" y2="-4.2569" stroke="black" stroke-width="0.5"/>
    <line x1="43.0634" y1="-4.2569" x2="45.2449" y2="24.2728" stroke="black" stroke-width="0.5"/>
    <line x1="45.2449" y1="24.2728" x2="6.6011" y2="31.1363" stroke="black" stroke-width="0.5"/>
    <line x1="6.6011" y1="31.1363" x2="4.2167" y2="1.7818" stroke="black" stroke-width="0.5"/>
    <line x1="47.3485" y1="10.9233" x2="45.7004" y2="7.6434" stroke="black" stroke-width="0.5"/>
    <line x1="45.7004" y1="7.6434" x2="32.7914" y2="88.0153" stroke="black" stroke-width="0.5"/>
    <line x1="32.7914" y1="88.0153" x2="17.061" y2="186.479" stroke="black" stroke-width="0.5"/>
    <line x1="17.061" y1="186.479" x2="47.3485" y2="10.9233" stroke="black" stroke-width="0.5"/>
    <line x1="32.9179" y1="25.5002" x2="30.1149" y2="28.4455" stroke="black" stroke-width="0.5"/>
    <line x1="30.1149" y1="28.4455" x2="22.7414" y2="-7.3906" stroke="black" stroke-width="0.5"/>
    <line x1="22.7414" y1="-7.3906" x2="24.2578" y2="-5.0622" stroke="black" stroke-width="0.5"/>
    <line x1="24.2578" y1="-5.0622" x2="32.9179" y2="25.5002" stroke="black" stroke-width="0.5"/>
    <line x1="31.2588" y1="23.1688" x2="32.2103" y2="22.0845" stroke="black" stroke-width="0.5"/>
    <line x1="32.2103" y1="22.0845" x2="34.0436" y2="35.0045" stroke="black" stroke-width="0.5"/>
    <line x1="34.0436" y1="35.0045" x2="29.6032" y2="14.7852" stroke="black" stroke-width="0.5"/>
    <line x1="29.6032" y1="14.7852" x2="31.2588" y2="23.1688" stroke="black" stroke-width="0.5"/>
    <line x1="5.462" y1="14.4548" x2="26.0608" y2="10.488" stroke="black" stroke-width="0.5"/>
  </g>
</svg>