<svg xmlns="http://www.w3.org/2000/svg" viewBox="-81.5509 -148.3276 262.8579 341.3704">
  <g transform="translate(0, 44.7152) scale(1, -1)">
    <line x1="0" y1="0" x2="12.88" y2="14.0093" stroke="black" stroke-width="0.5"/>
    <line x1="12.88" y1="14.0093" x2="-8.5595" y2="12.7541" stroke="black" stroke-width="0.5"/>
    <line x1="-8.5595" y1="12.7541" x2="0" y2="0" stroke="black" stroke-width="0.5"/>
    <line x1="-2.9387" y1="-6.9675" x2="16.5623" y2="14.0608" stroke="black" stroke-width="0.5"/>
    <line x1="16.5623" y1="14.0608" x2="-10.406" y2="21.5596" stroke="black" stroke-width="0.5"/>
    <line x1="-10.406" y1="21.5596" x2="-2.9387" y2="-6.9675" stroke="black" stroke-width="0.5"/>
    <line x1="-2.9387" y1="-6.9675" x2="-2.9301" y2="-34.5883" stroke="black" stroke-width="0.5"/>
    <line x1="-2.9301" y1="-34.5883" x2="79.113" y2="-65.7331" stroke="black" stroke-width="0.5"/>
    <line x1="79.113" y1="-65.7331" x2="45.2926" y2="50.8123" stroke="black" stroke-width="0.5"/>
    <line x1="45.2926" y1="50.8123" x2="-10.2735" y2="87.2757" stroke="black" stroke-width="0.5"/>
    <line x1="-10.2735" y1="87.2757" x2="-10.406" y2="21.5596" stroke="black" stroke-width="0.5"/>
    <line x1="1.6045" y1="-2.4274" x2="2.1848" y2="20.0306" stroke="black" stroke-width="0.5"/>
    <line x1="2.1848" y1="20.0306" x2="179.307" y2="-146.3276" stroke="black" stroke-width="0.5"/>
    <line x1="179.307" y1="-146.3276" x2="-79.5509" y2="191.0428" stroke="black" stroke-width="0.5"/>
    <line x1="-79.5509" y1="191.0428" x2="-5.3724" y2="15.7161" stroke="black" stroke-width="0.5"/>
    <line x1="-5.3724" y1="15.7161" x2="-5.6564" y2="20.6447" stroke="black" stroke-width="0.5"/>
    <line x1="56.8073" y1="18.5743" x2="54.3379" y2="21.2543" stroke="black" stroke-width="0.5"/>
    <line x1="54.3379" y1="21.2543" x2="74.127" y2="-145.2202" stroke="black" stroke-width="0.5"/>
    <line x1="74.127" y1="-145.2202" x2="58.4213" y2="155.9024" stroke="black" stroke-width="0.5"/>
    <line x1="58.4213" y1="155.9024" x2="56.8073" y2="18.5743" stroke="black" stroke-width="0.5"/>
    <line x1="-9.2305" y1="21.9549" x2="-17.503" y2="22.4758" stroke="black" stroke-width="0.5"/>
    <line x1="-17.503" y1="22.4758" x2="13.0935" y2="23.3489" stroke="black" stroke-width="0.5"/>
    <line x1="13.0935" y1="23.3489" x2="9.1163" y2="21.3838" stroke="black" stroke-width="0.5"/>
    <line x1="9.1163" y1="21.3838" x2="-9.2305" y2="21.9549" stroke="black" stroke-width="0.5"/>
    <line x1="50.465" y1="6.8281" x2="-67.8699" y2="33.245" stroke="black" stroke-width="0.5"/>
    <line x1="-67.8699" y1="33.245" x2="-73.6278" y2="34.5471" stroke="black" stroke-width="0.5"/>
    <line x1="-73.6278" y1="34.5471" x2="59.1263" y2="1.1611" stroke="black" stroke-width="0.5"/>
    <line x1="59.1263" y1="1.1611" x2="50.465" y2="6.8281" stroke="black" stroke-width="0.5"/>
    <line x1="-3.1368" y1="9.0091" x2="-2.6883" y2="26.0671" stroke="black" stroke-width="0.5"/>
  </g>
</svg>