<svg xmlns="http://www.w3.org/2000/svg" viewBox="-13.9 -47.2 69.3 58.0" width="600" height="600">
  <rect x="-13.9" y="-47.2" width="69.3" height="58.0" fill="#1a1a2e"/>
  <g data-layer="surfaces" opacity="0.25">
    <path d="M19.128,-16.928 L4.032,-1.296 L4.032,0.822 L27.349,0.822 L27.349,-37.178 L30.323,-37.178 L-3.941,-37.178 L-3.941,-22.680 L14.116,-18.178 L27.349,-18.178 L14.116,-18.178Z" fill="#4488cc" stroke="none"/>
    <path d="M4.032,-1.296 L-0.968,3.881 L-0.968,5.822 L50.349,5.822 L50.349,-16.178 L45.349,-16.178 L45.349,-20.178 L50.349,-20.178 L50.349,-42.178 L-8.941,-42.178 L-8.941,-23.926 L-3.941,-22.680 L-3.941,-37.178 L30.323,-37.178 L33.349,-37.178 L33.349,-37.178 L45.349,-37.178 L45.349,0.822 L33.349,0.822 L32.118,0.822 L27.349,0.822 L27.349,0.822 L4.032,0.822Z" fill="#44cc88" stroke="none"/>
    <path d="M33.349,0.822 L45.349,0.822 L45.349,-37.178 L33.349,-37.178Z" fill="#cc8844" stroke="none"/>
    <path d="M-0.968,3.881 L4.032,-1.296 L19.128,-16.928 L14.116,-18.178 L5.849,-18.178 L14.116,-18.178 L-3.941,-22.680 L-8.941,-23.926Z" fill="#cc44aa" stroke="none"/>
    <path d="M27.349,0.822 L32.118,0.822 L33.349,0.822 L33.349,-37.178 L30.323,-37.178 L27.349,-37.178Z" fill="#88cc44" stroke="none"/>
    <path d="M0.000,0.000 L15.282,-15.825 L-6.064,-21.148Z" fill="#44aacc" stroke="none"/>
    <path d="M31.349,-35.178 L29.349,-35.178 L29.349,-1.178 L31.349,-1.178Z" fill="#aa44cc" stroke="none"/>
    <path d="M50.349,-16.178 L50.349,-20.178 L45.349,-20.178 L45.349,-16.178Z" fill="#cccc44" stroke="none"/>
  </g>
  <g data-layer="surface-labels">
    <text x="14.588" y="-20.670" fill="#4488cc" font-size="3" font-family="sans-serif" text-anchor="middle" dominant-baseline="central" font-weight="bold" opacity="0.6">[0]</text>
    <text x="25.530" y="-20.386" fill="#44cc88" font-size="3" font-family="sans-serif" text-anchor="middle" dominant-baseline="central" font-weight="bold" opacity="0.6">[1]</text>
    <text x="39.349" y="-18.178" fill="#cc8844" font-size="3" font-family="sans-serif" text-anchor="middle" dominant-baseline="central" font-weight="bold" opacity="0.6">[2]</text>
    <text x="3.073" y="-12.324" fill="#cc44aa" font-size="3" font-family="sans-serif" text-anchor="middle" dominant-baseline="central" font-weight="bold" opacity="0.6">[3]</text>
    <text x="30.349" y="-18.178" fill="#88cc44" font-size="3" font-family="sans-serif" text-anchor="middle" dominant-baseline="central" font-weight="bold" opacity="0.6">[4]</text>
    <text x="3.073" y="-12.324" fill="#44aacc" font-size="3" font-family="sans-serif" text-anchor="middle" dominant-baseline="central" font-weight="bold" opacity="0.6">[5]</text>
    <text x="30.349" y="-18.178" fill="#aa44cc" font-size="3" font-family="sans-serif" text-anchor="middle" dominant-baseline="central" font-weight="bold" opacity="0.6">[6]</text>
    <text x="47.849" y="-18.178" fill="#cccc44" font-size="3" font-family="sans-serif" text-anchor="middle" dominant-baseline="central" font-weight="bold" opacity="0.6">[7]</text>
  </g>
  <g data-layer="edges">
    <line x1="0.000" y1="0.000" x2="15.282" y2="-15.825" stroke="#e8e8e8" stroke-width="0.4"/>
    <line x1="15.282" y1="-15.825" x2="-6.064" y2="-21.148" stroke="#e8e8e8" stroke-width="0.4"/>
    <line x1="-6.064" y1="-21.148" x2="0.000" y2="0.000" stroke="#e8e8e8" stroke-width="0.4"/>
    <line x1="-0.968" y1="3.881" x2="19.128" y2="-16.928" stroke="#e8e8e8" stroke-width="0.4"/>
    <line x1="19.128" y1="-16.928" x2="-8.941" y2="-23.926" stroke="#e8e8e8" stroke-width="0.4"/>
    <line x1="-8.941" y1="-23.926" x2="-0.968" y2="3.881" stroke="#e8e8e8" stroke-width="0.4"/>
    <line x1="-0.968" y1="3.881" x2="-0.968" y2="5.822" stroke="#e8e8e8" stroke-width="0.4"/>
    <line x1="-0.968" y1="5.822" x2="50.349" y2="5.822" stroke="#e8e8e8" stroke-width="0.4"/>
    <line x1="50.349" y1="5.822" x2="50.349" y2="-42.178" stroke="#e8e8e8" stroke-width="0.4"/>
    <line x1="50.349" y1="-42.178" x2="-8.941" y2="-42.178" stroke="#e8e8e8" stroke-width="0.4"/>
    <line x1="-8.941" y1="-42.178" x2="-8.941" y2="-23.926" stroke="#e8e8e8" stroke-width="0.4"/>
    <line x1="4.032" y1="-1.296" x2="4.032" y2="0.822" stroke="#e8e8e8" stroke-width="0.4"/>
    <line x1="4.032" y1="0.822" x2="45.349" y2="0.822" stroke="#e8e8e8" stroke-width="0.4"/>
    <line x1="45.349" y1="0.822" x2="45.349" y2="-37.178" stroke="#e8e8e8" stroke-width="0.4"/>
    <line x1="45.349" y1="-37.178" x2="-3.941" y2="-37.178" stroke="#e8e8e8" stroke-width="0.4"/>
    <line x1="-3.941" y1="-37.178" x2="-3.941" y2="-22.680" stroke="#e8e8e8" stroke-width="0.4"/>
    <line x1="45.349" y1="-20.178" x2="45.349" y2="-16.178" stroke="#e8e8e8" stroke-width="0.4"/>
    <line x1="45.349" y1="-16.178" x2="50.349" y2="-16.178" stroke="#e8e8e8" stroke-width="0.4"/>
    <line x1="50.349" y1="-16.178" x2="50.349" y2="-20.178" stroke="#e8e8e8" stroke-width="0.4"/>
    <line x1="50.349" y1="-20.178" x2="45.349" y2="-20.178" stroke="#e8e8e8" stroke-width="0.4"/>
    <line x1="33.349" y1="-37.178" x2="27.349" y2="-37.178" stroke="#e8e8e8" stroke-width="0.4"/>
    <line x1="27.349" y1="-37.178" x2="27.349" y2="0.822" stroke="#e8e8e8" stroke-width="0.4"/>
    <line x1="27.349" y1="0.822" x2="33.349" y2="0.822" stroke="#e8e8e8" stroke-width="0.4"/>
    <line x1="33.349" y1="0.822" x2="33.349" y2="-37.178" stroke="#e8e8e8" stroke-width="0.4"/>
    <line x1="31.349" y1="-35.178" x2="29.349" y2="-35.178" stroke="#e8e8e8" stroke-width="0.4"/>
    <line x1="29.349" y1="-35.178" x2="29.349" y2="-1.178" stroke="#e8e8e8" stroke-width="0.4"/>
    <line x1="29.349" y1="-1.178" x2="31.349" y2="-1.178" stroke="#e8e8e8" stroke-width="0.4"/>
    <line x1="31.349" y1="-1.178" x2="31.349" y2="-35.178" stroke="#e8e8e8" stroke-width="0.4"/>
    <line x1="5.849" y1="-18.178" x2="27.349" y2="-18.178" stroke="#e8e8e8" stroke-width="0.4"/>
    <circle cx="0.000" cy="0.000" r="0.6" fill="#e8e8e8"/>
    <circle cx="15.282" cy="-15.825" r="0.6" fill="#e8e8e8"/>
    <circle cx="-6.064" cy="-21.148" r="0.6" fill="#e8e8e8"/>
    <circle cx="-0.968" cy="3.881" r="0.6" fill="#e8e8e8"/>
    <circle cx="19.128" cy="-16.928" r="0.6" fill="#e8e8e8"/>
    <circle cx="-8.941" cy="-23.926" r="0.6" fill="#e8e8e8"/>
    <circle cx="5.849" cy="-18.178" r="0.6" fill="#e8e8e8"/>
    <circle cx="-0.968" cy="5.822" r="0.6" fill="#e8e8e8"/>
    <circle cx="50.349" cy="5.822" r="0.6" fill="#e8e8e8"/>
    <circle cx="50.349" cy="-42.178" r="0.6" fill="#e8e8e8"/>
    <circle cx="-8.941" cy="-42.178" r="0.6" fill="#e8e8e8"/>
    <circle cx="4.032" cy="-1.296" r="0.6" fill="#e8e8e8"/>
    <circle cx="-3.941" cy="-22.680" r="0.6" fill="#e8e8e8"/>
    <circle cx="4.032" cy="0.822" r="0.6" fill="#e8e8e8"/>
    <circle cx="45.349" cy="0.822" r="0.6" fill="#e8e8e8"/>
    <circle cx="45.349" cy="-37.178" r="0.6" fill="#e8e8e8"/>
    <circle cx="-3.941" cy="-37.178" r="0.6" fill="#e8e8e8"/>
    <circle cx="45.349" cy="-20.178" r="0.6" fill="#e8e8e8"/>
    <circle cx="45.349" cy="-18.178" r="0.6" fill="#e8e8e8"/>
    <circle cx="45.349" cy="-16.178" r="0.6" fill="#e8e8e8"/>
    <circle cx="50.349" cy="-16.178" r="0.6" fill="#e8e8e8"/>
    <circle cx="50.349" cy="-20.178" r="0.6" fill="#e8e8e8"/>
    <circle cx="33.349" cy="-37.178" r="0.6" fill="#e8e8e8"/>
    <circle cx="27.349" cy="-37.178" r="0.6" fill="#e8e8e8"/>
    <circle cx="27.349" cy="0.822" r="0.6" fill="#e8e8e8"/>
    <circle cx="33.349" cy="0.822" r="0.6" fill="#e8e8e8"/>
    <circle cx="31.349" cy="-35.178" r="0.6" fill="#e8e8e8"/>
    <circle cx="29.349" cy="-35.178" r="0.6" fill="#e8e8e8"/>
    <circle cx="29.349" cy="-1.178" r="0.6" fill="#e8e8e8"/>
    <circle cx="31.349" cy="-1.178" r="0.6" fill="#e8e8e8"/>
    <circle cx="27.349" cy="-18.178" r="0.6" fill="#e8e8e8"/>
  </g>
  <g data-layer="construction">
  </g>
  <g data-layer="annotations">
    <line x1="-1.200" y1="0.360" x2="1.200" y2="0.360" stroke="#faad14" stroke-width="0.3"/>
    <line x1="-0.840" y1="0.360" x2="-1.200" y2="0.960" stroke="#faad14" stroke-width="0.2"/>
    <line x1="-0.240" y1="0.360" x2="-0.600" y2="0.960" stroke="#faad14" stroke-width="0.2"/>
    <line x1="0.360" y1="0.360" x2="0.000" y2="0.960" stroke="#faad14" stroke-width="0.2"/>
    <line x1="0.960" y1="0.360" x2="0.600" y2="0.960" stroke="#faad14" stroke-width="0.2"/>
    <line x1="7.041" y1="-8.153" x2="8.241" y2="-8.153" stroke="#faad14" stroke-width="0.3" transform="rotate(-46.0 7.641 -7.913)"/>
    <line x1="7.041" y1="-7.673" x2="8.241" y2="-7.673" stroke="#faad14" stroke-width="0.3" transform="rotate(-46.0 7.641 -7.913)"/>
    <line x1="4.009" y1="-18.727" x2="5.209" y2="-18.727" stroke="#faad14" stroke-width="0.3" transform="rotate(-166.0 4.609 -18.487)"/>
    <line x1="4.009" y1="-18.247" x2="5.209" y2="-18.247" stroke="#faad14" stroke-width="0.3" transform="rotate(-166.0 4.609 -18.487)"/>
    <line x1="7.041" y1="-8.153" x2="8.241" y2="-8.153" stroke="#faad14" stroke-width="0.3" transform="rotate(-46.0 7.641 -7.913)"/>
    <line x1="7.041" y1="-7.673" x2="8.241" y2="-7.673" stroke="#faad14" stroke-width="0.3" transform="rotate(-46.0 7.641 -7.913)"/>
    <line x1="-3.632" y1="-10.814" x2="-2.432" y2="-10.814" stroke="#faad14" stroke-width="0.3" transform="rotate(74.0 -3.032 -10.574)"/>
    <line x1="-3.632" y1="-10.334" x2="-2.432" y2="-10.334" stroke="#faad14" stroke-width="0.3" transform="rotate(74.0 -3.032 -10.574)"/>
    <path d="M3.793,-12.324 A0.720,0.720 0 1,0 3.073,-13.044" fill="none" stroke="#faad14" stroke-width="0.3"/>
    <polygon points="3.073,-13.404 3.373,-12.924 2.773,-12.924" fill="#faad14"/>
    <line x1="8.480" y1="-6.763" x2="9.680" y2="-6.763" stroke="#4ade80" stroke-width="0.3" transform="rotate(-46.0 9.080 -6.523)"/>
    <line x1="8.480" y1="-6.283" x2="9.680" y2="-6.283" stroke="#4ade80" stroke-width="0.3" transform="rotate(-46.0 9.080 -6.523)"/>
    <line x1="4.493" y1="-20.667" x2="5.693" y2="-20.667" stroke="#4ade80" stroke-width="0.3" transform="rotate(-166.0 5.093 -20.427)"/>
    <line x1="4.493" y1="-20.187" x2="5.693" y2="-20.187" stroke="#4ade80" stroke-width="0.3" transform="rotate(-166.0 5.093 -20.427)"/>
    <line x1="8.480" y1="-6.763" x2="9.680" y2="-6.763" stroke="#4ade80" stroke-width="0.3" transform="rotate(-46.0 9.080 -6.523)"/>
    <line x1="8.480" y1="-6.283" x2="9.680" y2="-6.283" stroke="#4ade80" stroke-width="0.3" transform="rotate(-46.0 9.080 -6.523)"/>
    <line x1="-5.555" y1="-10.263" x2="-4.355" y2="-10.263" stroke="#4ade80" stroke-width="0.3" transform="rotate(74.0 -4.955 -10.023)"/>
    <line x1="-5.555" y1="-9.783" x2="-4.355" y2="-9.783" stroke="#4ade80" stroke-width="0.3" transform="rotate(74.0 -4.955 -10.023)"/>
    <path d="M3.793,-12.324 A0.720,0.720 0 1,0 3.073,-13.044" fill="none" stroke="#4ade80" stroke-width="0.3"/>
    <polygon points="3.073,-13.404 3.373,-12.924 2.773,-12.924" fill="#4ade80"/>
    <line x1="-0.216" y1="-0.208" x2="-2.518" y2="-2.431" stroke="#4ade80" stroke-width="0.15" opacity="0.6"/>
    <line x1="15.067" y1="-16.034" x2="12.765" y2="-18.257" stroke="#4ade80" stroke-width="0.15" opacity="0.6"/>
    <line x1="-2.158" y1="-2.084" x2="13.124" y2="-17.909" stroke="#4ade80" stroke-width="0.2"/>
    <polygon points="-2.158,-2.084 -1.715,-3.046 -1.212,-2.560" fill="#4ade80"/>
    <polygon points="13.124,-17.909 12.178,-17.433 12.682,-16.947" fill="#4ade80"/>
    <text x="5.483" y="-10.797" fill="#4ade80" font-size="1.8" font-family="sans-serif" text-anchor="middle" font-weight="bold">22</text>
    <line x1="7.641" y1="-7.913" x2="9.080" y2="-6.523" stroke="#4ade80" stroke-width="0.2"/>
    <polygon points="7.641,-7.913 7.930,-7.780 7.784,-7.629" fill="#4ade80"/>
    <polygon points="9.080,-6.523 8.937,-6.807 8.791,-6.656" fill="#4ade80"/>
    <text x="8.361" y="-8.018" fill="#4ade80" font-size="1.8" font-family="sans-serif" text-anchor="middle" font-weight="bold">-2</text>
    <text x="3.073" y="-12.324" fill="#4ade80" font-size="2" font-family="sans-serif" text-anchor="middle">⊕</text>
    <path d="M4.000,0.000 A4.000,4.000 0 0,0 2.779,-2.877" fill="none" stroke="#4ade80" stroke-width="0.3"/>
    <text x="4.787" y="-2.032" fill="#4ade80" font-size="1.6" font-family="sans-serif" text-anchor="middle" dominant-baseline="central">46°</text>
    <circle cx="5.849" cy="-18.178" r="0.36" fill="#4ade80" opacity="0.8"/>
    <line x1="5.849" y1="-18.178" x2="11.906" y2="-12.329" stroke="#4ade80" stroke-width="0.2"/>
    <polygon points="5.849,-18.178 6.811,-17.735 6.325,-17.231" fill="#4ade80"/>
    <polygon points="11.906,-12.329 11.429,-13.275 10.943,-12.771" fill="#4ade80"/>
    <text x="8.877" y="-16.053" fill="#4ade80" font-size="1.8" font-family="sans-serif" text-anchor="middle" font-weight="bold">8.42</text>
    <path d="M18.684,-13.766 A0.720,0.720 0 1,0 17.964,-14.486" fill="none" stroke="#4ade80" stroke-width="0.3"/>
    <polygon points="17.964,-14.846 18.264,-14.366 17.664,-14.366" fill="#4ade80"/>
    <path d="M0.532,3.881 A1.500,1.500 0 0,1 -0.968,5.381" fill="none" stroke="#4ade80" stroke-width="0.3"/>
    <text x="0.942" y="5.790" fill="#4ade80" font-size="1.6" font-family="sans-serif" text-anchor="middle" dominant-baseline="central">-90°</text>
    <path d="M3.032,5.822 A4.000,4.000 0 0,1 3.032,5.822" fill="none" stroke="#4ade80" stroke-width="0.3"/>
    <text x="4.232" y="5.822" fill="#4ade80" font-size="1.6" font-family="sans-serif" text-anchor="middle" dominant-baseline="central">0°</text>
    <path d="M54.349,5.822 A4.000,4.000 0 0,0 50.349,1.822" fill="none" stroke="#4ade80" stroke-width="0.3"/>
    <text x="54.026" y="2.145" fill="#4ade80" font-size="1.6" font-family="sans-serif" text-anchor="middle" dominant-baseline="central">90°</text>
    <path d="M54.349,-42.178 A4.000,4.000 0 0,0 46.349,-42.178" fill="none" stroke="#4ade80" stroke-width="0.3"/>
    <text x="50.349" y="-47.378" fill="#4ade80" font-size="1.6" font-family="sans-serif" text-anchor="middle" dominant-baseline="central">180°</text>
    <path d="M-4.941,-42.178 A4.000,4.000 0 0,1 -8.941,-38.178" fill="none" stroke="#4ade80" stroke-width="0.3"/>
    <text x="-5.264" y="-38.501" fill="#4ade80" font-size="1.6" font-family="sans-serif" text-anchor="middle" dominant-baseline="central">-90°</text>
    <circle cx="4.032" cy="-1.296" r="0.36" fill="#4ade80" opacity="0.8"/>
    <circle cx="-3.941" cy="-22.680" r="0.36" fill="#4ade80" opacity="0.8"/>
    <path d="M19.684,-14.801 A0.720,0.720 0 1,0 18.964,-15.521" fill="none" stroke="#4ade80" stroke-width="0.3"/>
    <polygon points="18.964,-15.881 19.264,-15.401 18.664,-15.401" fill="#4ade80"/>
    <line x1="-0.968" y1="4.852" x2="4.032" y2="-0.237" stroke="#4ade80" stroke-width="0.2"/>
    <polygon points="-0.968,4.852 -0.516,3.893 -0.017,4.384" fill="#4ade80"/>
    <polygon points="4.032,-0.237 3.082,0.231 3.581,0.722" fill="#4ade80"/>
    <text x="1.532" y="1.507" fill="#4ade80" font-size="1.8" font-family="sans-serif" text-anchor="middle" font-weight="bold">5</text>
    <line x1="24.691" y1="5.822" x2="24.691" y2="0.822" stroke="#4ade80" stroke-width="0.2"/>
    <polygon points="24.691,5.822 24.428,5.072 24.953,5.072" fill="#4ade80"/>
    <polygon points="24.691,0.822 24.428,1.572 24.953,1.572" fill="#4ade80"/>
    <text x="24.691" y="2.522" fill="#4ade80" font-size="1.8" font-family="sans-serif" text-anchor="middle" font-weight="bold">5</text>
    <line x1="50.349" y1="-18.178" x2="45.349" y2="-18.178" stroke="#4ade80" stroke-width="0.2"/>
    <polygon points="50.349,-18.178 49.599,-17.915 49.599,-18.440" fill="#4ade80"/>
    <polygon points="45.349,-18.178 46.099,-17.915 46.099,-18.440" fill="#4ade80"/>
    <text x="47.849" y="-18.978" fill="#4ade80" font-size="1.8" font-family="sans-serif" text-anchor="middle" font-weight="bold">5</text>
    <line x1="20.704" y1="-42.178" x2="20.704" y2="-37.178" stroke="#4ade80" stroke-width="0.2"/>
    <polygon points="20.704,-42.178 20.966,-41.428 20.441,-41.428" fill="#4ade80"/>
    <polygon points="20.704,-37.178 20.966,-37.928 20.441,-37.928" fill="#4ade80"/>
    <text x="20.704" y="-40.478" fill="#4ade80" font-size="1.8" font-family="sans-serif" text-anchor="middle" font-weight="bold">5</text>
    <line x1="-8.941" y1="-33.052" x2="-3.941" y2="-29.929" stroke="#4ade80" stroke-width="0.2"/>
    <polygon points="-8.941,-33.052 -8.027,-32.846 -8.355,-32.321" fill="#4ade80"/>
    <polygon points="-3.941,-29.929 -4.527,-30.660 -4.855,-30.135" fill="#4ade80"/>
    <text x="-6.441" y="-32.290" fill="#4ade80" font-size="1.8" font-family="sans-serif" text-anchor="middle" font-weight="bold">5</text>
    <path d="M48.569,-18.178 A0.720,0.720 0 1,0 47.849,-18.898" fill="none" stroke="#4ade80" stroke-width="0.3"/>
    <polygon points="47.849,-19.258 48.149,-18.778 47.549,-18.778" fill="#4ade80"/>
    <line x1="44.989" y1="-18.778" x2="45.709" y2="-18.178" stroke="#4ade80" stroke-width="0.3" transform="rotate(90.0 45.349 -18.178)"/>
    <line x1="45.709" y1="-18.178" x2="44.989" y2="-17.578" stroke="#4ade80" stroke-width="0.3" transform="rotate(90.0 45.349 -18.178)"/>
    <line x1="45.469" y1="-18.778" x2="46.189" y2="-18.178" stroke="#4ade80" stroke-width="0.3" transform="rotate(90.0 45.349 -18.178)"/>
    <line x1="46.189" y1="-18.178" x2="45.469" y2="-17.578" stroke="#4ade80" stroke-width="0.3" transform="rotate(90.0 45.349 -18.178)"/>
    <line x1="49.989" y1="-18.778" x2="50.709" y2="-18.178" stroke="#4ade80" stroke-width="0.3" transform="rotate(-90.0 50.349 -18.178)"/>
    <line x1="50.709" y1="-18.178" x2="49.989" y2="-17.578" stroke="#4ade80" stroke-width="0.3" transform="rotate(-90.0 50.349 -18.178)"/>
    <line x1="50.469" y1="-18.778" x2="51.189" y2="-18.178" stroke="#4ade80" stroke-width="0.3" transform="rotate(-90.0 50.349 -18.178)"/>
    <line x1="51.189" y1="-18.178" x2="50.469" y2="-17.578" stroke="#4ade80" stroke-width="0.3" transform="rotate(-90.0 50.349 -18.178)"/>
    <line x1="47.489" y1="-16.778" x2="48.209" y2="-16.178" stroke="#4ade80" stroke-width="0.3" transform="rotate(-0.0 47.849 -16.178)"/>
    <line x1="48.209" y1="-16.178" x2="47.489" y2="-15.578" stroke="#4ade80" stroke-width="0.3" transform="rotate(-0.0 47.849 -16.178)"/>
    <line x1="47.969" y1="-16.778" x2="48.689" y2="-16.178" stroke="#4ade80" stroke-width="0.3" transform="rotate(-0.0 47.849 -16.178)"/>
    <line x1="48.689" y1="-16.178" x2="47.969" y2="-15.578" stroke="#4ade80" stroke-width="0.3" transform="rotate(-0.0 47.849 -16.178)"/>
    <line x1="47.489" y1="-20.778" x2="48.209" y2="-20.178" stroke="#4ade80" stroke-width="0.3" transform="rotate(180.0 47.849 -20.178)"/>
    <line x1="48.209" y1="-20.178" x2="47.489" y2="-19.578" stroke="#4ade80" stroke-width="0.3" transform="rotate(180.0 47.849 -20.178)"/>
    <line x1="47.969" y1="-20.778" x2="48.689" y2="-20.178" stroke="#4ade80" stroke-width="0.3" transform="rotate(180.0 47.849 -20.178)"/>
    <line x1="48.689" y1="-20.178" x2="47.969" y2="-19.578" stroke="#4ade80" stroke-width="0.3" transform="rotate(180.0 47.849 -20.178)"/>
    <line x1="45.649" y1="-20.178" x2="48.849" y2="-20.178" stroke="#4ade80" stroke-width="0.15" opacity="0.6"/>
    <line x1="45.649" y1="-16.178" x2="48.849" y2="-16.178" stroke="#4ade80" stroke-width="0.15" opacity="0.6"/>
    <line x1="48.349" y1="-20.178" x2="48.349" y2="-16.178" stroke="#4ade80" stroke-width="0.2"/>
    <polygon points="48.349,-20.178 48.559,-19.578 48.139,-19.578" fill="#4ade80"/>
    <polygon points="48.349,-16.178 48.559,-16.778 48.139,-16.778" fill="#4ade80"/>
    <text x="48.349" y="-18.978" fill="#4ade80" font-size="1.8" font-family="sans-serif" text-anchor="middle" font-weight="bold">4</text>
    <polyline points="46.069,-16.178 45.349,-16.178 45.349,-15.458" fill="none" stroke="#4ade80" stroke-width="0.3" transform="rotate(-90.0 45.349 -16.178)"/>
    <polygon points="45.349,-18.778 45.829,-18.178 45.349,-17.578 44.869,-18.178" fill="#4ade80" opacity="0.7"/>
    <polygon points="45.349,-18.778 45.829,-18.178 45.349,-17.578 44.869,-18.178" fill="#4ade80" opacity="0.7"/>
    <path d="M31.069,-18.178 A0.720,0.720 0 1,0 30.349,-18.898" fill="none" stroke="#4ade80" stroke-width="0.3"/>
    <polygon points="30.349,-19.258 30.649,-18.778 30.049,-18.778" fill="#4ade80"/>
    <circle cx="33.349" cy="-37.178" r="0.36" fill="#4ade80" opacity="0.8"/>
    <circle cx="27.349" cy="-37.178" r="0.36" fill="#4ade80" opacity="0.8"/>
    <circle cx="27.349" cy="0.822" r="0.36" fill="#4ade80" opacity="0.8"/>
    <circle cx="33.349" cy="0.822" r="0.36" fill="#4ade80" opacity="0.8"/>
    <polyline points="21.424,-37.178 20.704,-37.178 20.704,-36.458" fill="none" stroke="#4ade80" stroke-width="0.3"/>
    <polyline points="21.424,-37.178 20.704,-37.178 20.704,-36.458" fill="none" stroke="#4ade80" stroke-width="0.3"/>
    <path d="M31.069,-18.178 A0.720,0.720 0 1,0 30.349,-18.898" fill="none" stroke="#4ade80" stroke-width="0.3"/>
    <polygon points="30.349,-19.258 30.649,-18.778 30.049,-18.778" fill="#4ade80"/>
    <line x1="30.349" y1="-37.178" x2="30.349" y2="-35.178" stroke="#4ade80" stroke-width="0.2"/>
    <polygon points="30.349,-37.178 30.454,-36.878 30.244,-36.878" fill="#4ade80"/>
    <polygon points="30.349,-35.178 30.454,-35.478 30.244,-35.478" fill="#4ade80"/>
    <text x="30.349" y="-36.978" fill="#4ade80" font-size="1.8" font-family="sans-serif" text-anchor="middle" font-weight="bold">2</text>
    <line x1="27.349" y1="-18.178" x2="29.349" y2="-18.178" stroke="#4ade80" stroke-width="0.2"/>
    <polygon points="27.349,-18.178 27.649,-18.283 27.649,-18.073" fill="#4ade80"/>
    <polygon points="29.349,-18.178 29.049,-18.283 29.049,-18.073" fill="#4ade80"/>
    <text x="28.349" y="-18.978" fill="#4ade80" font-size="1.8" font-family="sans-serif" text-anchor="middle" font-weight="bold">2</text>
    <line x1="30.349" y1="0.822" x2="30.349" y2="-1.178" stroke="#4ade80" stroke-width="0.2"/>
    <polygon points="30.349,0.822 30.244,0.522 30.454,0.522" fill="#4ade80"/>
    <polygon points="30.349,-1.178 30.244,-0.878 30.454,-0.878" fill="#4ade80"/>
    <text x="30.349" y="-0.978" fill="#4ade80" font-size="1.8" font-family="sans-serif" text-anchor="middle" font-weight="bold">2</text>
    <line x1="33.349" y1="-18.178" x2="31.349" y2="-18.178" stroke="#4ade80" stroke-width="0.2"/>
    <polygon points="33.349,-18.178 33.049,-18.073 33.049,-18.283" fill="#4ade80"/>
    <polygon points="31.349,-18.178 31.649,-18.073 31.649,-18.283" fill="#4ade80"/>
    <text x="32.349" y="-18.978" fill="#4ade80" font-size="1.8" font-family="sans-serif" text-anchor="middle" font-weight="bold">2</text>
    <line x1="29.349" y1="-18.178" x2="31.349" y2="-18.178" stroke="#4ade80" stroke-width="0.2"/>
    <polygon points="29.349,-18.178 29.649,-18.283 29.649,-18.073" fill="#4ade80"/>
    <polygon points="31.349,-18.178 31.049,-18.283 31.049,-18.073" fill="#4ade80"/>
    <text x="30.349" y="-18.978" fill="#4ade80" font-size="1.8" font-family="sans-serif" text-anchor="middle" font-weight="bold">2</text>
    <line x1="31.349" y1="-18.178" x2="45.349" y2="-18.178" stroke="#4ade80" stroke-width="0.2"/>
    <polygon points="31.349,-18.178 32.349,-18.528 32.349,-17.828" fill="#4ade80"/>
    <polygon points="45.349,-18.178 44.349,-18.528 44.349,-17.828" fill="#4ade80"/>
    <text x="38.349" y="-18.978" fill="#4ade80" font-size="1.8" font-family="sans-serif" text-anchor="middle" font-weight="bold">-14</text>
    <line x1="27.649" y1="-37.178" x2="30.849" y2="-37.178" stroke="#4ade80" stroke-width="0.15" opacity="0.6"/>
    <line x1="27.649" y1="0.822" x2="30.849" y2="0.822" stroke="#4ade80" stroke-width="0.15" opacity="0.6"/>
    <line x1="30.349" y1="-37.178" x2="30.349" y2="0.822" stroke="#4ade80" stroke-width="0.2"/>
    <polygon points="30.349,-37.178 30.699,-36.178 29.999,-36.178" fill="#4ade80"/>
    <polygon points="30.349,0.822 30.699,-0.178 29.999,-0.178" fill="#4ade80"/>
    <text x="30.349" y="-18.978" fill="#4ade80" font-size="1.8" font-family="sans-serif" text-anchor="middle" font-weight="bold">38</text>
    <polygon points="27.349,-18.778 27.829,-18.178 27.349,-17.578 26.869,-18.178" fill="#4ade80" opacity="0.7"/>
    <line x1="5.849" y1="-18.478" x2="5.849" y2="-21.678" stroke="#4ade80" stroke-width="0.15" opacity="0.6"/>
    <line x1="27.349" y1="-18.478" x2="27.349" y2="-21.678" stroke="#4ade80" stroke-width="0.15" opacity="0.6"/>
    <line x1="5.849" y1="-21.178" x2="27.349" y2="-21.178" stroke="#4ade80" stroke-width="0.2"/>
    <polygon points="5.849,-21.178 6.849,-21.528 6.849,-20.828" fill="#4ade80"/>
    <polygon points="27.349,-21.178 26.349,-21.528 26.349,-20.828" fill="#4ade80"/>
    <text x="16.599" y="-21.978" fill="#4ade80" font-size="1.8" font-family="sans-serif" text-anchor="middle" font-weight="bold">21.5</text>
    <polyline points="17.319,-18.178 16.599,-18.178 16.599,-17.458" fill="none" stroke="#4ade80" stroke-width="0.3"/>
  </g>
  <g data-layer="status">
    <rect x="-12.9" y="-46.2" width="41.6" height="3" rx="0.5" fill="#faad14" opacity="0.85"/>
    <text x="-12.1" y="-44.1" fill="#000000" font-size="1.8" font-family="sans-serif" font-weight="bold">OVER-REDUNDANT DOF=-4 err=0.0000</text>
  </g>
</svg>