<svg xmlns="http://www.w3.org/2000/svg" viewBox="-28.9826 -95.2102 480.0069 1084.3375">
  <g transform="translate(0, 893.9171) scale(1, -1)">
    <line x1="0" y1="0" x2="46.8025" y2="55.2883" stroke="black" stroke-width="0.5"/>
    <line x1="46.8025" y1="55.2883" x2="-3.7054" y2="80.1833" stroke="black" stroke-width="0.5"/>
    <line x1="-3.7054" y1="80.1833" x2="0" y2="0" stroke="black" stroke-width="0.5"/>
    <line x1="43.6074" y1="120.9313" x2="-26.9826" y2="-7.063" stroke="black" stroke-width="0.5"/>
    <line x1="-26.9826" y1="-7.063" x2="81.3863" y2="2.416" stroke="black" stroke-width="0.5"/>
    <line x1="81.3863" y1="2.416" x2="43.6074" y2="120.9313" stroke="black" stroke-width="0.5"/>
    <line x1="43.6074" y1="120.9313" x2="35.3762" y2="84.6677" stroke="black" stroke-width="0.5"/>
    <line x1="35.3762" y1="84.6677" x2="263.8952" y2="94.3693" stroke="black" stroke-width="0.5"/>
    <line x1="263.8952" y1="94.3693" x2="225.7012" y2="539.8331" stroke="black" stroke-width="0.5"/>
    <line x1="225.7012" y1="539.8331" x2="90.5366" y2="692.5768" stroke="black" stroke-width="0.5"/>
    <line x1="90.5366" y1="692.5768" x2="81.3863" y2="2.416" stroke="black" stroke-width="0.5"/>
    <line x1="8.9742" y1="157.7329" x2="84.3563" y2="113.109" stroke="black" stroke-width="0.5"/>
    <line x1="84.3563" y1="113.109" x2="314.271" y2="129.443" stroke="black" stroke-width="0.5"/>
    <line x1="314.271" y1="129.443" x2="145.8114" y2="987.1273" stroke="black" stroke-width="0.5"/>
    <line x1="145.8114" y1="987.1273" x2="110.8758" y2="252.4034" stroke="black" stroke-width="0.5"/>
    <line x1="110.8758" y1="252.4034" x2="98.0814" y2="10.5261" stroke="black" stroke-width="0.5"/>
    <line x1="245.5827" y1="550.4257" x2="244.5827" y2="548.5335" stroke="black" stroke-width="0.5"/>
    <line x1="244.5827" y1="548.5335" x2="100.0776" y2="827.4766" stroke="black" stroke-width="0.5"/>
    <line x1="100.0776" y1="827.4766" x2="82.9191" y2="902.586" stroke="black" stroke-width="0.5"/>
    <line x1="82.9191" y1="902.586" x2="245.5827" y2="550.4257" stroke="black" stroke-width="0.5"/>
    <line x1="153.5505" y1="238.5725" x2="139.3344" y2="225.5681" stroke="black" stroke-width="0.5"/>
    <line x1="139.3344" y1="225.5681" x2="194.0898" y2="180.8176" stroke="black" stroke-width="0.5"/>
    <line x1="194.0898" y1="180.8176" x2="342.6539" y2="105.5703" stroke="black" stroke-width="0.5"/>
    <line x1="342.6539" y1="105.5703" x2="153.5505" y2="238.5725" stroke="black" stroke-width="0.5"/>
    <line x1="298.7172" y1="282.3646" x2="185.5153" y2="233.8248" stroke="black" stroke-width="0.5"/>
    <line x1="185.5153" y1="233.8248" x2="54.9942" y2="401.0078" stroke="black" stroke-width="0.5"/>
    <line x1="54.9942" y1="401.0078" x2="449.0242" y2="-93.2102" stroke="black" stroke-width="0.5"/>
    <line x1="449.0242" y1="-93.2102" x2="298.7172" y2="282.3646" stroke="black" stroke-width="0.5"/>
    <line x1="84.1117" y1="108.963" x2="141.1937" y2="170.0352" stroke="black" stroke-width="0.5"/>
  </g>
</svg>