<svg xmlns="http://www.w3.org/2000/svg" viewBox="-13.9 -47.2 69.3 58.0" width="600" height="600">
  <rect x="-13.9" y="-47.2" width="69.3" height="58.0" fill="#1a1a2e"/>
  <g data-layer="surfaces" opacity="0.25">
    <path d="M-3.941,-22.680 L14.117,-18.177 L27.348,-18.177 L27.348,-37.177 L-3.941,-37.177Z" fill="#4488cc" stroke="none"/>
    <path d="M33.347,0.823 L45.347,0.823 L45.347,-16.177 L45.347,-16.177 L45.347,-20.177 L45.347,-20.177 L45.347,-37.177 L32.312,-37.177 L33.348,-37.177Z" fill="#44cc88" stroke="none"/>
    <path d="M-8.941,-23.926 L-3.941,-22.680 L-3.941,-37.177 L27.348,-37.177 L27.348,-37.177 L32.312,-37.177 L45.347,-37.177 L45.347,-20.177 L50.347,-20.177 L50.347,-42.177 L-8.941,-42.177Z" fill="#cc8844" stroke="none"/>
    <path d="M4.032,-1.296 L-0.968,3.881 L-0.968,5.823 L50.347,5.823 L50.347,-19.298 L50.347,-16.177 L45.347,-16.177 L45.347,0.823 L33.347,0.823 L33.347,0.823 L32.215,0.823 L4.032,0.823Z" fill="#cc44aa" stroke="none"/>
    <path d="M19.127,-16.928 L4.032,-1.296 L4.032,0.823 L32.215,0.823 L27.348,0.823 L27.348,-18.177 L14.117,-18.177Z" fill="#88cc44" stroke="none"/>
    <path d="M32.215,0.823 L33.347,0.823 L33.348,-37.177 L32.312,-37.177 L27.348,-37.177 L27.348,-18.177 L27.348,-18.177 L27.348,-18.177 L27.348,0.823Z" fill="#44aacc" stroke="none"/>
    <path d="M0.000,0.000 L15.282,-15.825 L5.849,-18.177 L5.848,-18.177 L5.849,-18.177 L-6.064,-21.147Z" fill="#aa44cc" stroke="none"/>
    <path d="M15.282,-15.825 L0.000,0.000 L-6.064,-21.147 L5.849,-18.177 L14.117,-18.177 L-3.941,-22.680 L-3.941,-22.680 L-3.941,-22.680 L-8.941,-23.926 L-0.968,3.881 L4.032,-1.296 L19.127,-16.928 L14.117,-18.177 L5.849,-18.177Z" fill="#cccc44" stroke="none"/>
    <path d="M31.348,-35.177 L29.348,-35.177 L29.348,-1.177 L31.347,-1.177Z" fill="#4488cc" stroke="none"/>
    <path d="M50.347,-19.298 L50.347,-20.177 L45.347,-20.177 L45.347,-16.177 L50.347,-16.177Z" fill="#44cc88" stroke="none"/>
  </g>
  <g data-layer="surface-labels">
    <text x="12.410" y="-28.264" fill="#4488cc" font-size="3" font-family="sans-serif" text-anchor="middle" dominant-baseline="central" font-weight="bold" opacity="0.6">[0]</text>
    <text x="39.347" y="-18.177" fill="#44cc88" font-size="3" font-family="sans-serif" text-anchor="middle" dominant-baseline="central" font-weight="bold" opacity="0.6">[1]</text>
    <text x="21.650" y="-36.150" fill="#cc8844" font-size="3" font-family="sans-serif" text-anchor="middle" dominant-baseline="central" font-weight="bold" opacity="0.6">[2]</text>
    <text x="30.684" y="0.566" fill="#cc44aa" font-size="3" font-family="sans-serif" text-anchor="middle" dominant-baseline="central" font-weight="bold" opacity="0.6">[3]</text>
    <text x="18.486" y="-7.068" fill="#88cc44" font-size="3" font-family="sans-serif" text-anchor="middle" dominant-baseline="central" font-weight="bold" opacity="0.6">[4]</text>
    <text x="30.348" y="-18.177" fill="#44aacc" font-size="3" font-family="sans-serif" text-anchor="middle" dominant-baseline="central" font-weight="bold" opacity="0.6">[5]</text>
    <text x="3.073" y="-12.324" fill="#aa44cc" font-size="3" font-family="sans-serif" text-anchor="middle" dominant-baseline="central" font-weight="bold" opacity="0.6">[6]</text>
    <text x="3.073" y="-12.324" fill="#cccc44" font-size="3" font-family="sans-serif" text-anchor="middle" dominant-baseline="central" font-weight="bold" opacity="0.6">[7]</text>
    <text x="30.348" y="-18.177" fill="#4488cc" font-size="3" font-family="sans-serif" text-anchor="middle" dominant-baseline="central" font-weight="bold" opacity="0.6">[8]</text>
    <text x="47.847" y="-18.177" fill="#44cc88" font-size="3" font-family="sans-serif" text-anchor="middle" dominant-baseline="central" font-weight="bold" opacity="0.6">[9]</text>
  </g>
  <g data-layer="edges">
    <line x1="0.000" y1="0.000" x2="15.282" y2="-15.825" stroke="#e8e8e8" stroke-width="0.4"/>
    <line x1="15.282" y1="-15.825" x2="-6.064" y2="-21.147" stroke="#e8e8e8" stroke-width="0.4"/>
    <line x1="-6.064" y1="-21.147" x2="0.000" y2="0.000" stroke="#e8e8e8" stroke-width="0.4"/>
    <line x1="-0.968" y1="3.881" x2="19.127" y2="-16.928" stroke="#e8e8e8" stroke-width="0.4"/>
    <line x1="19.127" y1="-16.928" x2="-8.941" y2="-23.926" stroke="#e8e8e8" stroke-width="0.4"/>
    <line x1="-8.941" y1="-23.926" x2="-0.968" y2="3.881" stroke="#e8e8e8" stroke-width="0.4"/>
    <line x1="-0.968" y1="3.881" x2="-0.968" y2="5.823" stroke="#e8e8e8" stroke-width="0.4"/>
    <line x1="-0.968" y1="5.823" x2="50.347" y2="5.823" stroke="#e8e8e8" stroke-width="0.4"/>
    <line x1="50.347" y1="5.823" x2="50.347" y2="-42.177" stroke="#e8e8e8" stroke-width="0.4"/>
    <line x1="50.347" y1="-42.177" x2="-8.941" y2="-42.177" stroke="#e8e8e8" stroke-width="0.4"/>
    <line x1="-8.941" y1="-42.177" x2="-8.941" y2="-23.926" stroke="#e8e8e8" stroke-width="0.4"/>
    <line x1="4.032" y1="-1.296" x2="4.032" y2="0.823" stroke="#e8e8e8" stroke-width="0.4"/>
    <line x1="4.032" y1="0.823" x2="45.347" y2="0.823" stroke="#e8e8e8" stroke-width="0.4"/>
    <line x1="45.347" y1="0.823" x2="45.347" y2="-37.177" stroke="#e8e8e8" stroke-width="0.4"/>
    <line x1="45.347" y1="-37.177" x2="-3.941" y2="-37.177" stroke="#e8e8e8" stroke-width="0.4"/>
    <line x1="-3.941" y1="-37.177" x2="-3.941" y2="-22.680" stroke="#e8e8e8" stroke-width="0.4"/>
    <line x1="45.347" y1="-20.177" x2="45.347" y2="-16.177" stroke="#e8e8e8" stroke-width="0.4"/>
    <line x1="45.347" y1="-16.177" x2="50.347" y2="-16.177" stroke="#e8e8e8" stroke-width="0.4"/>
    <line x1="50.347" y1="-16.177" x2="50.347" y2="-20.177" stroke="#e8e8e8" stroke-width="0.4"/>
    <line x1="50.347" y1="-20.177" x2="45.347" y2="-20.177" stroke="#e8e8e8" stroke-width="0.4"/>
    <line x1="33.348" y1="-37.177" x2="27.348" y2="-37.177" stroke="#e8e8e8" stroke-width="0.4"/>
    <line x1="27.348" y1="-37.177" x2="27.348" y2="0.823" stroke="#e8e8e8" stroke-width="0.4"/>
    <line x1="27.348" y1="0.823" x2="33.347" y2="0.823" stroke="#e8e8e8" stroke-width="0.4"/>
    <line x1="33.347" y1="0.823" x2="33.348" y2="-37.177" stroke="#e8e8e8" stroke-width="0.4"/>
    <line x1="31.348" y1="-35.177" x2="29.348" y2="-35.177" stroke="#e8e8e8" stroke-width="0.4"/>
    <line x1="29.348" y1="-35.177" x2="29.348" y2="-1.177" stroke="#e8e8e8" stroke-width="0.4"/>
    <line x1="29.348" y1="-1.177" x2="31.347" y2="-1.177" stroke="#e8e8e8" stroke-width="0.4"/>
    <line x1="31.347" y1="-1.177" x2="31.348" y2="-35.177" stroke="#e8e8e8" stroke-width="0.4"/>
    <line x1="5.848" y1="-18.177" x2="27.348" y2="-18.177" stroke="#e8e8e8" stroke-width="0.4"/>
    <circle cx="0.000" cy="0.000" r="0.6" fill="#e8e8e8"/>
    <circle cx="15.282" cy="-15.825" r="0.6" fill="#e8e8e8"/>
    <circle cx="-6.064" cy="-21.147" r="0.6" fill="#e8e8e8"/>
    <circle cx="-0.968" cy="3.881" r="0.6" fill="#e8e8e8"/>
    <circle cx="19.127" cy="-16.928" r="0.6" fill="#e8e8e8"/>
    <circle cx="-8.941" cy="-23.926" r="0.6" fill="#e8e8e8"/>
    <circle cx="5.848" cy="-18.177" r="0.6" fill="#e8e8e8"/>
    <circle cx="-0.968" cy="5.823" r="0.6" fill="#e8e8e8"/>
    <circle cx="50.347" cy="5.823" r="0.6" fill="#e8e8e8"/>
    <circle cx="50.347" cy="-42.177" r="0.6" fill="#e8e8e8"/>
    <circle cx="-8.941" cy="-42.177" r="0.6" fill="#e8e8e8"/>
    <circle cx="4.032" cy="-1.296" r="0.6" fill="#e8e8e8"/>
    <circle cx="-3.941" cy="-22.680" r="0.6" fill="#e8e8e8"/>
    <circle cx="4.032" cy="0.823" r="0.6" fill="#e8e8e8"/>
    <circle cx="45.347" cy="0.823" r="0.6" fill="#e8e8e8"/>
    <circle cx="45.347" cy="-37.177" r="0.6" fill="#e8e8e8"/>
    <circle cx="-3.941" cy="-37.177" r="0.6" fill="#e8e8e8"/>
    <circle cx="45.347" cy="-20.177" r="0.6" fill="#e8e8e8"/>
    <circle cx="45.347" cy="-18.177" r="0.6" fill="#e8e8e8"/>
    <circle cx="45.347" cy="-16.177" r="0.6" fill="#e8e8e8"/>
    <circle cx="50.347" cy="-16.177" r="0.6" fill="#e8e8e8"/>
    <circle cx="50.347" cy="-20.177" r="0.6" fill="#e8e8e8"/>
    <circle cx="33.348" cy="-37.177" r="0.6" fill="#e8e8e8"/>
    <circle cx="27.348" cy="-37.177" r="0.6" fill="#e8e8e8"/>
    <circle cx="27.348" cy="0.823" r="0.6" fill="#e8e8e8"/>
    <circle cx="33.347" cy="0.823" r="0.6" fill="#e8e8e8"/>
    <circle cx="31.348" cy="-35.177" r="0.6" fill="#e8e8e8"/>
    <circle cx="29.348" cy="-35.177" r="0.6" fill="#e8e8e8"/>
    <circle cx="29.348" cy="-1.177" r="0.6" fill="#e8e8e8"/>
    <circle cx="31.347" cy="-1.177" r="0.6" fill="#e8e8e8"/>
    <circle cx="27.348" cy="-18.177" r="0.6" fill="#e8e8e8"/>
  </g>
  <g data-layer="construction">
  </g>
  <g data-layer="annotations">
    <line x1="-1.200" y1="0.360" x2="1.200" y2="0.360" stroke="#faad14" stroke-width="0.3"/>
    <line x1="-0.840" y1="0.360" x2="-1.200" y2="0.960" stroke="#faad14" stroke-width="0.2"/>
    <line x1="-0.240" y1="0.360" x2="-0.600" y2="0.960" stroke="#faad14" stroke-width="0.2"/>
    <line x1="0.360" y1="0.360" x2="0.000" y2="0.960" stroke="#faad14" stroke-width="0.2"/>
    <line x1="0.960" y1="0.360" x2="0.600" y2="0.960" stroke="#faad14" stroke-width="0.2"/>
    <line x1="7.041" y1="-8.153" x2="8.241" y2="-8.153" stroke="#faad14" stroke-width="0.3" transform="rotate(-46.0 7.641 -7.913)"/>
    <line x1="7.041" y1="-7.673" x2="8.241" y2="-7.673" stroke="#faad14" stroke-width="0.3" transform="rotate(-46.0 7.641 -7.913)"/>
    <line x1="4.009" y1="-18.726" x2="5.209" y2="-18.726" stroke="#faad14" stroke-width="0.3" transform="rotate(-166.0 4.609 -18.486)"/>
    <line x1="4.009" y1="-18.246" x2="5.209" y2="-18.246" stroke="#faad14" stroke-width="0.3" transform="rotate(-166.0 4.609 -18.486)"/>
    <line x1="7.041" y1="-8.153" x2="8.241" y2="-8.153" stroke="#faad14" stroke-width="0.3" transform="rotate(-46.0 7.641 -7.913)"/>
    <line x1="7.041" y1="-7.673" x2="8.241" y2="-7.673" stroke="#faad14" stroke-width="0.3" transform="rotate(-46.0 7.641 -7.913)"/>
    <line x1="-3.632" y1="-10.814" x2="-2.432" y2="-10.814" stroke="#faad14" stroke-width="0.3" transform="rotate(74.0 -3.032 -10.574)"/>
    <line x1="-3.632" y1="-10.334" x2="-2.432" y2="-10.334" stroke="#faad14" stroke-width="0.3" transform="rotate(74.0 -3.032 -10.574)"/>
    <path d="M3.793,-12.324 A0.720,0.720 0 1,0 3.073,-13.044" fill="none" stroke="#faad14" stroke-width="0.3"/>
    <polygon points="3.073,-13.404 3.373,-12.924 2.773,-12.924" fill="#faad14"/>
    <line x1="8.480" y1="-6.763" x2="9.680" y2="-6.763" stroke="#4ade80" stroke-width="0.3" transform="rotate(-46.0 9.080 -6.523)"/>
    <line x1="8.480" y1="-6.283" x2="9.680" y2="-6.283" stroke="#4ade80" stroke-width="0.3" transform="rotate(-46.0 9.080 -6.523)"/>
    <line x1="4.493" y1="-20.667" x2="5.693" y2="-20.667" stroke="#4ade80" stroke-width="0.3" transform="rotate(-166.0 5.093 -20.427)"/>
    <line x1="4.493" y1="-20.187" x2="5.693" y2="-20.187" stroke="#4ade80" stroke-width="0.3" transform="rotate(-166.0 5.093 -20.427)"/>
    <line x1="8.480" y1="-6.763" x2="9.680" y2="-6.763" stroke="#4ade80" stroke-width="0.3" transform="rotate(-46.0 9.080 -6.523)"/>
    <line x1="8.480" y1="-6.283" x2="9.680" y2="-6.283" stroke="#4ade80" stroke-width="0.3" transform="rotate(-46.0 9.080 -6.523)"/>
    <line x1="-5.555" y1="-10.262" x2="-4.355" y2="-10.262" stroke="#4ade80" stroke-width="0.3" transform="rotate(74.0 -4.955 -10.022)"/>
    <line x1="-5.555" y1="-9.782" x2="-4.355" y2="-9.782" stroke="#4ade80" stroke-width="0.3" transform="rotate(74.0 -4.955 -10.022)"/>
    <path d="M3.793,-12.324 A0.720,0.720 0 1,0 3.073,-13.044" fill="none" stroke="#4ade80" stroke-width="0.3"/>
    <polygon points="3.073,-13.404 3.373,-12.924 2.773,-12.924" fill="#4ade80"/>
    <line x1="-0.216" y1="-0.208" x2="-2.518" y2="-2.431" stroke="#4ade80" stroke-width="0.15" opacity="0.6"/>
    <line x1="15.067" y1="-16.034" x2="12.765" y2="-18.257" stroke="#4ade80" stroke-width="0.15" opacity="0.6"/>
    <line x1="-2.158" y1="-2.084" x2="13.124" y2="-17.909" stroke="#4ade80" stroke-width="0.2"/>
    <polygon points="-2.158,-2.084 -1.715,-3.046 -1.212,-2.560" fill="#4ade80"/>
    <polygon points="13.124,-17.909 12.178,-17.433 12.682,-16.947" fill="#4ade80"/>
    <text x="5.483" y="-10.797" fill="#4ade80" font-size="1.8" font-family="sans-serif" text-anchor="middle" font-weight="bold">22</text>
    <line x1="7.641" y1="-7.913" x2="9.080" y2="-6.523" stroke="#4ade80" stroke-width="0.2"/>
    <polygon points="7.641,-7.913 7.930,-7.780 7.784,-7.629" fill="#4ade80"/>
    <polygon points="9.080,-6.523 8.937,-6.807 8.791,-6.656" fill="#4ade80"/>
    <text x="8.361" y="-8.018" fill="#4ade80" font-size="1.8" font-family="sans-serif" text-anchor="middle" font-weight="bold">-2</text>
    <text x="3.073" y="-12.324" fill="#4ade80" font-size="2" font-family="sans-serif" text-anchor="middle">⊕</text>
    <path d="M4.000,0.000 A4.000,4.000 0 0,0 2.779,-2.877" fill="none" stroke="#4ade80" stroke-width="0.3"/>
    <text x="4.787" y="-2.032" fill="#4ade80" font-size="1.6" font-family="sans-serif" text-anchor="middle" dominant-baseline="central">46°</text>
    <circle cx="5.848" cy="-18.177" r="0.36" fill="#4ade80" opacity="0.8"/>
    <line x1="5.848" y1="-18.177" x2="11.905" y2="-12.328" stroke="#4ade80" stroke-width="0.2"/>
    <polygon points="5.848,-18.177 6.810,-17.734 6.324,-17.231" fill="#4ade80"/>
    <polygon points="11.905,-12.328 11.429,-13.274 10.943,-12.771" fill="#4ade80"/>
    <text x="8.877" y="-16.053" fill="#4ade80" font-size="1.8" font-family="sans-serif" text-anchor="middle" font-weight="bold">8.42</text>
    <path d="M18.684,-13.765 A0.720,0.720 0 1,0 17.964,-14.485" fill="none" stroke="#4ade80" stroke-width="0.3"/>
    <polygon points="17.964,-14.845 18.264,-14.365 17.664,-14.365" fill="#4ade80"/>
    <path d="M0.532,3.881 A1.500,1.500 0 0,1 -0.968,5.381" fill="none" stroke="#4ade80" stroke-width="0.3"/>
    <text x="0.941" y="5.790" fill="#4ade80" font-size="1.6" font-family="sans-serif" text-anchor="middle" dominant-baseline="central">-90°</text>
    <path d="M3.032,5.823 A4.000,4.000 0 0,1 3.032,5.823" fill="none" stroke="#4ade80" stroke-width="0.3"/>
    <text x="4.232" y="5.823" fill="#4ade80" font-size="1.6" font-family="sans-serif" text-anchor="middle" dominant-baseline="central">0°</text>
    <path d="M54.347,5.823 A4.000,4.000 0 0,0 50.347,1.823" fill="none" stroke="#4ade80" stroke-width="0.3"/>
    <text x="54.024" y="2.146" fill="#4ade80" font-size="1.6" font-family="sans-serif" text-anchor="middle" dominant-baseline="central">90°</text>
    <path d="M54.347,-42.177 A4.000,4.000 0 0,0 46.347,-42.177" fill="none" stroke="#4ade80" stroke-width="0.3"/>
    <text x="50.347" y="-47.377" fill="#4ade80" font-size="1.6" font-family="sans-serif" text-anchor="middle" dominant-baseline="central">180°</text>
    <path d="M-4.941,-42.177 A4.000,4.000 0 0,1 -8.941,-38.177" fill="none" stroke="#4ade80" stroke-width="0.3"/>
    <text x="-5.264" y="-38.500" fill="#4ade80" font-size="1.6" font-family="sans-serif" text-anchor="middle" dominant-baseline="central">-90°</text>
    <circle cx="4.032" cy="-1.296" r="0.36" fill="#4ade80" opacity="0.8"/>
    <circle cx="-3.941" cy="-22.680" r="0.36" fill="#4ade80" opacity="0.8"/>
    <path d="M19.684,-14.801 A0.720,0.720 0 1,0 18.964,-15.521" fill="none" stroke="#4ade80" stroke-width="0.3"/>
    <polygon points="18.964,-15.881 19.264,-15.401 18.664,-15.401" fill="#4ade80"/>
    <line x1="-0.968" y1="4.852" x2="4.032" y2="-0.237" stroke="#4ade80" stroke-width="0.2"/>
    <polygon points="-0.968,4.852 -0.517,3.894 -0.017,4.384" fill="#4ade80"/>
    <polygon points="4.032,-0.237 3.082,0.231 3.581,0.722" fill="#4ade80"/>
    <text x="1.532" y="1.508" fill="#4ade80" font-size="1.8" font-family="sans-serif" text-anchor="middle" font-weight="bold">5</text>
    <line x1="24.690" y1="5.823" x2="24.690" y2="0.823" stroke="#4ade80" stroke-width="0.2"/>
    <polygon points="24.690,5.823 24.427,5.073 24.952,5.073" fill="#4ade80"/>
    <polygon points="24.690,0.823 24.427,1.573 24.952,1.573" fill="#4ade80"/>
    <text x="24.690" y="2.523" fill="#4ade80" font-size="1.8" font-family="sans-serif" text-anchor="middle" font-weight="bold">5</text>
    <line x1="50.347" y1="-18.177" x2="45.347" y2="-18.177" stroke="#4ade80" stroke-width="0.2"/>
    <polygon points="50.347,-18.177 49.597,-17.914 49.597,-18.439" fill="#4ade80"/>
    <polygon points="45.347,-18.177 46.097,-17.914 46.097,-18.439" fill="#4ade80"/>
    <text x="47.847" y="-18.977" fill="#4ade80" font-size="1.8" font-family="sans-serif" text-anchor="middle" font-weight="bold">5</text>
    <line x1="20.703" y1="-42.177" x2="20.703" y2="-37.177" stroke="#4ade80" stroke-width="0.2"/>
    <polygon points="20.703,-42.177 20.965,-41.427 20.441,-41.427" fill="#4ade80"/>
    <polygon points="20.703,-37.177 20.966,-37.927 20.441,-37.927" fill="#4ade80"/>
    <text x="20.703" y="-40.477" fill="#4ade80" font-size="1.8" font-family="sans-serif" text-anchor="middle" font-weight="bold">5</text>
    <line x1="-8.941" y1="-33.051" x2="-3.941" y2="-29.928" stroke="#4ade80" stroke-width="0.2"/>
    <polygon points="-8.941,-33.051 -8.027,-32.845 -8.355,-32.320" fill="#4ade80"/>
    <polygon points="-3.941,-29.928 -4.527,-30.659 -4.855,-30.134" fill="#4ade80"/>
    <text x="-6.441" y="-32.290" fill="#4ade80" font-size="1.8" font-family="sans-serif" text-anchor="middle" font-weight="bold">5</text>
    <path d="M48.567,-18.177 A0.720,0.720 0 1,0 47.847,-18.897" fill="none" stroke="#4ade80" stroke-width="0.3"/>
    <polygon points="47.847,-19.257 48.147,-18.777 47.547,-18.777" fill="#4ade80"/>
    <line x1="44.987" y1="-18.777" x2="45.707" y2="-18.177" stroke="#4ade80" stroke-width="0.3" transform="rotate(90.0 45.347 -18.177)"/>
    <line x1="45.707" y1="-18.177" x2="44.987" y2="-17.577" stroke="#4ade80" stroke-width="0.3" transform="rotate(90.0 45.347 -18.177)"/>
    <line x1="45.467" y1="-18.777" x2="46.187" y2="-18.177" stroke="#4ade80" stroke-width="0.3" transform="rotate(90.0 45.347 -18.177)"/>
    <line x1="46.187" y1="-18.177" x2="45.467" y2="-17.577" stroke="#4ade80" stroke-width="0.3" transform="rotate(90.0 45.347 -18.177)"/>
    <line x1="49.987" y1="-18.777" x2="50.707" y2="-18.177" stroke="#4ade80" stroke-width="0.3" transform="rotate(-90.0 50.347 -18.177)"/>
    <line x1="50.707" y1="-18.177" x2="49.987" y2="-17.577" stroke="#4ade80" stroke-width="0.3" transform="rotate(-90.0 50.347 -18.177)"/>
    <line x1="50.467" y1="-18.777" x2="51.187" y2="-18.177" stroke="#4ade80" stroke-width="0.3" transform="rotate(-90.0 50.347 -18.177)"/>
    <line x1="51.187" y1="-18.177" x2="50.467" y2="-17.577" stroke="#4ade80" stroke-width="0.3" transform="rotate(-90.0 50.347 -18.177)"/>
    <line x1="47.487" y1="-16.777" x2="48.207" y2="-16.177" stroke="#4ade80" stroke-width="0.3" transform="rotate(0.0 47.847 -16.177)"/>
    <line x1="48.207" y1="-16.177" x2="47.487" y2="-15.577" stroke="#4ade80" stroke-width="0.3" transform="rotate(0.0 47.847 -16.177)"/>
    <line x1="47.967" y1="-16.777" x2="48.687" y2="-16.177" stroke="#4ade80" stroke-width="0.3" transform="rotate(0.0 47.847 -16.177)"/>
    <line x1="48.687" y1="-16.177" x2="47.967" y2="-15.577" stroke="#4ade80" stroke-width="0.3" transform="rotate(0.0 47.847 -16.177)"/>
    <line x1="47.487" y1="-20.777" x2="48.207" y2="-20.177" stroke="#4ade80" stroke-width="0.3" transform="rotate(-180.0 47.847 -20.177)"/>
    <line x1="48.207" y1="-20.177" x2="47.487" y2="-19.577" stroke="#4ade80" stroke-width="0.3" transform="rotate(-180.0 47.847 -20.177)"/>
    <line x1="47.967" y1="-20.777" x2="48.687" y2="-20.177" stroke="#4ade80" stroke-width="0.3" transform="rotate(-180.0 47.847 -20.177)"/>
    <line x1="48.687" y1="-20.177" x2="47.967" y2="-19.577" stroke="#4ade80" stroke-width="0.3" transform="rotate(-180.0 47.847 -20.177)"/>
    <line x1="45.647" y1="-20.177" x2="48.847" y2="-20.177" stroke="#4ade80" stroke-width="0.15" opacity="0.6"/>
    <line x1="45.647" y1="-16.177" x2="48.847" y2="-16.177" stroke="#4ade80" stroke-width="0.15" opacity="0.6"/>
    <line x1="48.347" y1="-20.177" x2="48.347" y2="-16.177" stroke="#4ade80" stroke-width="0.2"/>
    <polygon points="48.347,-20.177 48.557,-19.577 48.137,-19.577" fill="#4ade80"/>
    <polygon points="48.347,-16.177 48.557,-16.777 48.137,-16.777" fill="#4ade80"/>
    <text x="48.347" y="-18.977" fill="#4ade80" font-size="1.8" font-family="sans-serif" text-anchor="middle" font-weight="bold">4</text>
    <polyline points="46.067,-16.177 45.347,-16.177 45.347,-15.457" fill="none" stroke="#4ade80" stroke-width="0.3" transform="rotate(-90.0 45.347 -16.177)"/>
    <polygon points="45.347,-18.777 45.827,-18.177 45.347,-17.577 44.867,-18.177" fill="#4ade80" opacity="0.7"/>
    <polygon points="45.347,-18.777 45.827,-18.177 45.347,-17.577 44.867,-18.177" fill="#4ade80" opacity="0.7"/>
    <path d="M31.068,-18.177 A0.720,0.720 0 1,0 30.348,-18.897" fill="none" stroke="#4ade80" stroke-width="0.3"/>
    <polygon points="30.348,-19.257 30.648,-18.777 30.048,-18.777" fill="#4ade80"/>
    <circle cx="33.348" cy="-37.177" r="0.36" fill="#4ade80" opacity="0.8"/>
    <circle cx="27.348" cy="-37.177" r="0.36" fill="#4ade80" opacity="0.8"/>
    <circle cx="27.348" cy="0.823" r="0.36" fill="#4ade80" opacity="0.8"/>
    <circle cx="33.347" cy="0.823" r="0.36" fill="#4ade80" opacity="0.8"/>
    <polyline points="21.423,-37.177 20.703,-37.177 20.703,-36.457" fill="none" stroke="#4ade80" stroke-width="0.3"/>
    <polyline points="21.423,-37.177 20.703,-37.177 20.703,-36.457" fill="none" stroke="#4ade80" stroke-width="0.3"/>
    <path d="M31.068,-18.177 A0.720,0.720 0 1,0 30.348,-18.897" fill="none" stroke="#4ade80" stroke-width="0.3"/>
    <polygon points="30.348,-19.257 30.648,-18.777 30.048,-18.777" fill="#4ade80"/>
    <line x1="30.348" y1="-37.177" x2="30.348" y2="-35.177" stroke="#4ade80" stroke-width="0.2"/>
    <polygon points="30.348,-37.177 30.453,-36.877 30.243,-36.877" fill="#4ade80"/>
    <polygon points="30.348,-35.177 30.453,-35.477 30.243,-35.477" fill="#4ade80"/>
    <text x="30.348" y="-36.977" fill="#4ade80" font-size="1.8" font-family="sans-serif" text-anchor="middle" font-weight="bold">2</text>
    <line x1="27.348" y1="-18.177" x2="29.348" y2="-18.177" stroke="#4ade80" stroke-width="0.2"/>
    <polygon points="27.348,-18.177 27.648,-18.282 27.648,-18.072" fill="#4ade80"/>
    <polygon points="29.348,-18.177 29.048,-18.282 29.048,-18.072" fill="#4ade80"/>
    <text x="28.348" y="-18.977" fill="#4ade80" font-size="1.8" font-family="sans-serif" text-anchor="middle" font-weight="bold">2</text>
    <line x1="30.348" y1="0.823" x2="30.348" y2="-1.177" stroke="#4ade80" stroke-width="0.2"/>
    <polygon points="30.348,0.823 30.243,0.523 30.453,0.523" fill="#4ade80"/>
    <polygon points="30.348,-1.177 30.243,-0.877 30.453,-0.877" fill="#4ade80"/>
    <text x="30.348" y="-0.977" fill="#4ade80" font-size="1.8" font-family="sans-serif" text-anchor="middle" font-weight="bold">2</text>
    <line x1="33.348" y1="-18.177" x2="31.348" y2="-18.177" stroke="#4ade80" stroke-width="0.2"/>
    <polygon points="33.348,-18.177 33.048,-18.072 33.048,-18.282" fill="#4ade80"/>
    <polygon points="31.348,-18.177 31.648,-18.072 31.648,-18.282" fill="#4ade80"/>
    <text x="32.348" y="-18.977" fill="#4ade80" font-size="1.8" font-family="sans-serif" text-anchor="middle" font-weight="bold">2</text>
    <line x1="29.348" y1="-18.177" x2="31.348" y2="-18.177" stroke="#4ade80" stroke-width="0.2"/>
    <polygon points="29.348,-18.177 29.648,-18.282 29.648,-18.072" fill="#4ade80"/>
    <polygon points="31.348,-18.177 31.048,-18.282 31.048,-18.072" fill="#4ade80"/>
    <text x="30.348" y="-18.977" fill="#4ade80" font-size="1.8" font-family="sans-serif" text-anchor="middle" font-weight="bold">2</text>
    <line x1="31.348" y1="-18.177" x2="45.347" y2="-18.177" stroke="#4ade80" stroke-width="0.2"/>
    <polygon points="31.348,-18.177 32.348,-18.527 32.348,-17.827" fill="#4ade80"/>
    <polygon points="45.347,-18.177 44.347,-18.527 44.347,-17.827" fill="#4ade80"/>
    <text x="38.348" y="-18.977" fill="#4ade80" font-size="1.8" font-family="sans-serif" text-anchor="middle" font-weight="bold">-14</text>
    <line x1="27.648" y1="-37.177" x2="30.848" y2="-37.177" stroke="#4ade80" stroke-width="0.15" opacity="0.6"/>
    <line x1="27.648" y1="0.823" x2="30.848" y2="0.823" stroke="#4ade80" stroke-width="0.15" opacity="0.6"/>
    <line x1="30.348" y1="-37.177" x2="30.348" y2="0.823" stroke="#4ade80" stroke-width="0.2"/>
    <polygon points="30.348,-37.177 30.698,-36.177 29.998,-36.177" fill="#4ade80"/>
    <polygon points="30.348,0.823 30.698,-0.177 29.998,-0.177" fill="#4ade80"/>
    <text x="30.348" y="-18.977" fill="#4ade80" font-size="1.8" font-family="sans-serif" text-anchor="middle" font-weight="bold">38</text>
    <polygon points="27.348,-18.777 27.828,-18.177 27.348,-17.577 26.868,-18.177" fill="#4ade80" opacity="0.7"/>
    <line x1="5.848" y1="-18.477" x2="5.848" y2="-21.677" stroke="#4ade80" stroke-width="0.15" opacity="0.6"/>
    <line x1="27.348" y1="-18.477" x2="27.348" y2="-21.677" stroke="#4ade80" stroke-width="0.15" opacity="0.6"/>
    <line x1="5.848" y1="-21.177" x2="27.348" y2="-21.177" stroke="#4ade80" stroke-width="0.2"/>
    <polygon points="5.848,-21.177 6.848,-21.527 6.848,-20.827" fill="#4ade80"/>
    <polygon points="27.348,-21.177 26.348,-21.527 26.348,-20.827" fill="#4ade80"/>
    <text x="16.598" y="-21.977" fill="#4ade80" font-size="1.8" font-family="sans-serif" text-anchor="middle" font-weight="bold">21.5</text>
    <polyline points="17.318,-18.177 16.598,-18.177 16.598,-17.457" fill="none" stroke="#4ade80" stroke-width="0.3"/>
  </g>
  <g data-layer="status">
    <rect x="-12.9" y="-46.2" width="41.6" height="3" rx="0.5" fill="#faad14" opacity="0.85"/>
    <text x="-12.1" y="-44.1" fill="#000000" font-size="1.8" font-family="sans-serif" font-weight="bold">OVER-REDUNDANT DOF=-4 err=0.0003</text>
  </g>
</svg>