<svg xmlns="http://www.w3.org/2000/svg" viewBox="-39.6495 -448.3432 134.1161 885.8515">
  <g transform="translate(0, -10.835) scale(1, -1)">
    <line x1="0" y1="0" x2="17.337" y2="15.6579" stroke="black" stroke-width="0.5"/>
    <line x1="17.337" y1="15.6579" x2="-7.4517" y2="22.65" stroke="black" stroke-width="0.5"/>
    <line x1="-7.4517" y1="22.65" x2="0" y2="0" stroke="black" stroke-width="0.5"/>
    <line x1="-12.5817" y1="-11.0936" x2="29.0058" y2="20.3745" stroke="black" stroke-width="0.5"/>
    <line x1="29.0058" y1="20.3745" x2="-10.1354" y2="29.0572" stroke="black" stroke-width="0.5"/>
    <line x1="-10.1354" y1="29.0572" x2="-12.5817" y2="-11.0936" stroke="black" stroke-width="0.5"/>
    <line x1="-12.5817" y1="-11.0936" x2="1.7326" y2="-71.1608" stroke="black" stroke-width="0.5"/>
    <line x1="1.7326" y1="-71.1608" x2="69.8547" y2="-114.9619" stroke="black" stroke-width="0.5"/>
    <line x1="69.8547" y1="-114.9619" x2="60.9585" y2="37.4826" stroke="black" stroke-width="0.5"/>
    <line x1="60.9585" y1="37.4826" x2="-13.6375" y2="36.5741" stroke="black" stroke-width="0.5"/>
    <line x1="-13.6375" y1="36.5741" x2="-10.1354" y2="29.0572" stroke="black" stroke-width="0.5"/>
    <line x1="-21.7799" y1="-8.8881" x2="-35.5661" y2="20.8322" stroke="black" stroke-width="0.5"/>
    <line x1="-35.5661" y1="20.8322" x2="71.7241" y2="-149.1709" stroke="black" stroke-width="0.5"/>
    <line x1="71.7241" y1="-149.1709" x2="40.5068" y2="37.5388" stroke="black" stroke-width="0.5"/>
    <line x1="40.5068" y1="37.5388" x2="-3.0993" y2="35.9217" stroke="black" stroke-width="0.5"/>
    <line x1="-3.0993" y1="35.9217" x2="1.2364" y2="25.6927" stroke="black" stroke-width="0.5"/>
    <line x1="36.2348" y1="-62.7801" x2="40.0132" y2="-64.6964" stroke="black" stroke-width="0.5"/>
    <line x1="40.0132" y1="-64.6964" x2="56.0972" y2="-56.504" stroke="black" stroke-width="0.5"/>
    <line x1="56.0972" y1="-56.504" x2="56.7729" y2="-50.8934" stroke="black" stroke-width="0.5"/>
    <line x1="56.7729" y1="-50.8934" x2="36.2348" y2="-62.7801" stroke="black" stroke-width="0.5"/>
    <line x1="-7.7338" y1="40.543" x2="-6.9809" y2="36.9697" stroke="black" stroke-width="0.5"/>
    <line x1="-6.9809" y1="36.9697" x2="-1.7579" y2="-5.117" stroke="black" stroke-width="0.5"/>
    <line x1="-1.7579" y1="-5.117" x2="5.2765" y2="-38.2672" stroke="black" stroke-width="0.5"/>
    <line x1="5.2765" y1="-38.2672" x2="-7.7338" y2="40.543" stroke="black" stroke-width="0.5"/>
    <line x1="-37.6495" y1="435.5082" x2="26.2382" y2="-14.7055" stroke="black" stroke-width="0.5"/>
    <line x1="26.2382" y1="-14.7055" x2="92.4666" y2="-446.3432" stroke="black" stroke-width="0.5"/>
    <line x1="92.4666" y1="-446.3432" x2="92.1151" y2="-433.7021" stroke="black" stroke-width="0.5"/>
    <line x1="92.1151" y1="-433.7021" x2="-37.6495" y2="435.5082" stroke="black" stroke-width="0.5"/>
    <line x1="13.8865" y1="19.388" x2="-5.2633" y2="17.0556" stroke="black" stroke-width="0.5"/>
  </g>
</svg>