<svg xmlns="http://www.w3.org/2000/svg" viewBox="-64.9047 -26.6191 119.6574 54.2044">
  <g transform="translate(0, 0.9662) scale(1, -1)">
    <line x1="0" y1="0" x2="13.5118" y2="14.8142" stroke="black" stroke-width="0.5"/>
    <line x1="13.5118" y1="14.8142" x2="-7.4119" y2="18.2154" stroke="black" stroke-width="0.5"/>
    <line x1="-7.4119" y1="18.2154" x2="0" y2="0" stroke="black" stroke-width="0.5"/>
    <line x1="-4.3235" y1="-7.2715" x2="19.7386" y2="16.4612" stroke="black" stroke-width="0.5"/>
    <line x1="19.7386" y1="16.4612" x2="-11.4835" y2="25.181" stroke="black" stroke-width="0.5"/>
    <line x1="-11.4835" y1="25.181" x2="-4.3235" y2="-7.2715" stroke="black" stroke-width="0.5"/>
    <line x1="-4.3235" y1="-7.2715" x2="-5.2327" y2="-9.9178" stroke="black" stroke-width="0.5"/>
    <line x1="-5.2327" y1="-9.9178" x2="25.0969" y2="-6.4443" stroke="black" stroke-width="0.5"/>
    <line x1="25.0969" y1="-6.4443" x2="23.4141" y2="16.4892" stroke="black" stroke-width="0.5"/>
    <line x1="23.4141" y1="16.4892" x2="-11.7381" y2="25.327" stroke="black" stroke-width="0.5"/>
    <line x1="-11.7381" y1="25.327" x2="-11.4835" y2="25.181" stroke="black" stroke-width="0.5"/>
    <line x1="8.2898" y1="5.0923" x2="-12.6013" y2="-9.2475" stroke="black" stroke-width="0.5"/>
    <line x1="-12.6013" y1="-9.2475" x2="21.4787" y2="1.7871" stroke="black" stroke-width="0.5"/>
    <line x1="21.4787" y1="1.7871" x2="18.1637" y2="5.1219" stroke="black" stroke-width="0.5"/>
    <line x1="18.1637" y1="5.1219" x2="-1.6158" y2="25.5853" stroke="black" stroke-width="0.5"/>
    <line x1="-1.6158" y1="25.5853" x2="-12.247" y2="25.0485" stroke="black" stroke-width="0.5"/>
    <line x1="17.8023" y1="5.3124" x2="20.4406" y2="2.2902" stroke="black" stroke-width="0.5"/>
    <line x1="20.4406" y1="2.2902" x2="23.6159" y2="5.1226" stroke="black" stroke-width="0.5"/>
    <line x1="23.6159" y1="5.1226" x2="22.1504" y2="9.4232" stroke="black" stroke-width="0.5"/>
    <line x1="22.1504" y1="9.4232" x2="17.8023" y2="5.3124" stroke="black" stroke-width="0.5"/>
    <line x1="19.3739" y1="2.914" x2="20.9774" y2="3.6987" stroke="black" stroke-width="0.5"/>
    <line x1="20.9774" y1="3.6987" x2="-12.6593" y2="-10.2055" stroke="black" stroke-width="0.5"/>
    <line x1="-12.6593" y1="-10.2055" x2="-6.7035" y2="-9.7364" stroke="black" stroke-width="0.5"/>
    <line x1="-6.7035" y1="-9.7364" x2="19.3739" y2="2.914" stroke="black" stroke-width="0.5"/>
    <line x1="-62.9047" y1="-24.6191" x2="52.7527" y2="5.9258" stroke="black" stroke-width="0.5"/>
    <line x1="52.7527" y1="5.9258" x2="-43.657" y2="-17.2868" stroke="black" stroke-width="0.5"/>
    <line x1="-43.657" y1="-17.2868" x2="32.3893" y2="-3.3292" stroke="black" stroke-width="0.5"/>
    <line x1="32.3893" y1="-3.3292" x2="-62.9047" y2="-24.6191" stroke="black" stroke-width="0.5"/>
    <line x1="-0.219" y1="16.2436" x2="5.5619" y2="-3.5474" stroke="black" stroke-width="0.5"/>
  </g>
</svg>